<svg id="圖層_1" data-name="圖層 1" xmlns="http://www.w3.org/2000/svg" xmlns:xlink="http://www.w3.org/1999/xlink" viewBox="0 0 949.55 242.98"><defs><style>.cls-1,.cls-2,.cls-3{stroke-miterlimit:10;stroke-width:1.76px;}.cls-1{fill:url(#未命名漸層_2);stroke:url(#未命名漸層_4);}.cls-2{fill:url(#未命名漸層_2-2);stroke:url(#未命名漸層_4-2);}.cls-3{fill:url(#未命名漸層_2-3);stroke:url(#未命名漸層_4-3);}.cls-4{fill:#af563e;}.cls-5{fill:#fff;}</style><linearGradient id="未命名漸層_2" x1="0.95" y1="119.99" x2="299.2" y2="119.99" gradientUnits="userSpaceOnUse"><stop offset="0" stop-color="#f0eeeb"/><stop offset="0" stop-color="#e4e1dc"/><stop offset="0" stop-color="#dad5cf"/><stop offset="0.05" stop-color="#d8cbc0"/><stop offset="0.13" stop-color="#d2b199"/><stop offset="0.15" stop-color="#d1ad93"/><stop offset="0.52" stop-color="#e9d6d1"/><stop offset="0.63" stop-color="#e3ccc2"/><stop offset="0.84" stop-color="#d4b39b"/><stop offset="0.88" stop-color="#d1ad93"/><stop offset="1" stop-color="#dcdddd"/><stop offset="1" stop-color="#b5b5b6"/></linearGradient><linearGradient id="未命名漸層_4" x1="0.07" y1="119.99" x2="300.08" y2="119.99" gradientUnits="userSpaceOnUse"><stop offset="0" stop-color="#f0eeeb"/><stop offset="0" stop-color="#e4e1dc"/><stop offset="0" stop-color="#dad5cf"/><stop offset="0.05" stop-color="#d8cbc0"/><stop offset="0.13" stop-color="#d2b199"/><stop offset="0.15" stop-color="#d1ad93"/><stop offset="0.52" stop-color="#f0e4da"/><stop offset="0.62" stop-color="#ead9cb"/><stop offset="0.8" stop-color="#d9bba4"/><stop offset="0.88" stop-color="#d1ad93"/><stop offset="1" stop-color="#dcdddd"/><stop offset="1" stop-color="#b5b5b6"/></linearGradient><linearGradient id="未命名漸層_2-2" x1="325.44" y1="120.99" x2="623.69" y2="120.99" xlink:href="#未命名漸層_2"/><linearGradient id="未命名漸層_4-2" x1="324.56" y1="120.99" x2="624.57" y2="120.99" xlink:href="#未命名漸層_4"/><linearGradient id="未命名漸層_2-3" x1="650.42" y1="122.99" x2="948.67" y2="122.99" xlink:href="#未命名漸層_2"/><linearGradient id="未命名漸層_4-3" x1="649.54" y1="122.99" x2="949.55" y2="122.99" xlink:href="#未命名漸層_4"/></defs><polygon class="cls-1" points="0.95 239.1 299.2 239.1 298.3 0.88 30.57 0.88 0.95 25.15 0.95 239.1"/><polyline points="30.3 24.44 0 24.44 30.3 0.1"/><polygon class="cls-2" points="325.44 240.1 623.69 240.1 622.79 1.88 355.06 1.88 325.44 26.15 325.44 240.1"/><polyline points="354.79 25.44 324.49 25.44 354.79 1.1"/><polygon class="cls-3" points="650.42 242.1 948.67 242.1 947.77 3.88 680.04 3.88 650.42 28.15 650.42 242.1"/><polyline points="679.77 27.44 649.47 27.44 679.77 3.1"/><path d="M149.72,155.31a27.29,27.29,0,0,1,2.12,4.9l-2.37,1H155v4.07H143v-4.07h4.86a31.57,31.57,0,0,0-1.73-4.5ZM154,176.37v11.09h-6.34v1.4H144V176.37Zm.1-10v3.88h-9.89v-3.88Zm0,5v3.89h-9.89v-3.89Zm-6.44,12.21h2.66v-3.17h-2.66Zm27.86-2.34a20.46,20.46,0,0,1-3.38,3.67,1.55,1.55,0,0,0,1.26.68c.54,0,.86-1,1-2.8a10.41,10.41,0,0,0,2.92,1.79c-.58,3.6-1.88,5-4.36,5a4.93,4.93,0,0,1-4.25-2.23,23.88,23.88,0,0,1-3.27,1.65,20.68,20.68,0,0,0-2-2.3,2.46,2.46,0,0,1-1.55,2.19,13.45,13.45,0,0,1-5.08.58,15.75,15.75,0,0,0-1.22-3.64c1.08.08,2.48.08,2.84.08s.58-.15.58-.54v-1.12l-4,.4-.43-3.93,4.46-.28v-1.16h-4.18v-3.7H159v-1c-1,.07-2.05.14-3,.18a12,12,0,0,0-1-3,46.52,46.52,0,0,0,8.72-1.33l2.08,2.45,0-1.88h4.32l0,1.55,2.81-1.91a15.72,15.72,0,0,1,3.53,3.32l-2.31,1.62h2.49v3.7h-6.16l.29,1.95a13.34,13.34,0,0,0,1.37-1.73Zm-12.31-14.58v-.87H157v-3.13h6.15v-.79h-7.27v-3.42h3.64a16.64,16.64,0,0,0-1.12-1.94l3.64-1.26a14.49,14.49,0,0,1,1.87,3.2h4a20.35,20.35,0,0,0,1.44-3.17l4.57,1.05-1.54,2.12h3.45v3.42h-7.66v.79h6.51v3.13h-6.51v.87h8.42v3.67H154.87v-3.67Zm.29,8.93h2.41l-.11-2.06c-.72.18-1.51.33-2.3.47Zm0,9.93v.61a23.89,23.89,0,0,0,3.67-2,28.78,28.78,0,0,1-1-4.86h-2.7v.8l2.34-.18.07,3.67-2.41.25ZM170,172.73l.07,2.78h2.74A17.63,17.63,0,0,0,170,172.73Z" transform="translate(-64 -59.9)"/><path d="M211.1,178.35h-11V161.58h4.72l.43-1.41h-6.12v-3.6h16.7v3.6h-5.94l-.68,1.41H215v16.77H212.1a30.55,30.55,0,0,1,4.68,4.21l-3.56,2.05,3.78-.11a13.86,13.86,0,0,0-1.66,4.25H200.19c-6.23,0-10.26-.61-12.92-4a12.67,12.67,0,0,1-2.41,5,13.77,13.77,0,0,0-3-3.6c2-2.45,2.19-6.37,2.27-10.66h4.14c0,1.34-.08,2.63-.18,3.89a9.12,9.12,0,0,0,1.33,2.38v-7.38H183v-3.75h16.24v3.75h-5.44v2.37h4.75v3.71h-4.75v3.78a30,30,0,0,0,6.41.5h.4a25.53,25.53,0,0,0-3-2.66,14.14,14.14,0,0,0,5.36-3.64l4.25,1.34a19.73,19.73,0,0,1-5.65,5c2.77,0,7.63,0,11.41-.07a31.1,31.1,0,0,0-4.9-4.71Zm-13.21-21.81v12.31h-13.5V156.54ZM189,161.07h4.06V160H189Zm0,4.36h4.06v-1.15H189Zm15.69.72h5.43V165h-5.43Zm0,4.35h5.43v-1.11h-5.43Zm0,4.36h5.43v-1.12h-5.43Z" transform="translate(-64 -59.9)"/><path d="M224.38,165.28a42.2,42.2,0,0,1,6.77,3.28L228.34,173a45.8,45.8,0,0,0-6.58-3.71Zm4.18,9.11,3.74,3.2v-18l-2.62,3.74a53.11,53.11,0,0,0-6.23-3.82l2.84-3.85c1.73.83,4.47,2.2,6,3.17v-2.41h22.79v27.21c0,2.45-.36,3.92-1.8,4.79s-3.35,1-6.08,1a18.67,18.67,0,0,0-1.52-5.26c1.44.11,3.13.07,3.71.07s.68-.18.68-.72V161.11H237.2V189.4h-4.9V178.64c-1.51,3.45-3.24,6.94-5,10.26l-4.64-3.5A101.84,101.84,0,0,0,228.56,174.39Zm20.37-11.48v4.24H238.39v-4.24Zm-.32,6v12.71h-6v2h-3.93V168.88Zm-6,8.43h1.94v-4.18H242.6Z" transform="translate(-64 -59.9)"/><path d="M268.16,169.85l.29,2.6,1.33-1a24.32,24.32,0,0,0-2-2.77,31.94,31.94,0,0,1-3.46,1.59,13.22,13.22,0,0,0-2.7-3.28,19.86,19.86,0,0,0,6-2.81h-4.79v-6.66h13.17c-.21-.54-.43-1.11-.64-1.58l5.18-1.12a22.7,22.7,0,0,1,1.22,2.7h13v6h-2.88l1.8,1.15a27.93,27.93,0,0,1-4.86,7.16,20.76,20.76,0,0,0,7,3,17.7,17.7,0,0,0-3,4.06l-1.51-.5v2.77h-4.07a46.35,46.35,0,0,1,8.1,4l-3.67,3.74a46.74,46.74,0,0,0-8.85-4.71l3-3h-4.28v8.28H276v-8.28h-5l4.25,1.55A26.91,26.91,0,0,1,266,188.5a31.6,31.6,0,0,0-3.56-3.78,21.34,21.34,0,0,0,7.88-3.6h-3.64v-3a27.12,27.12,0,0,1-2.7,1.08,15.37,15.37,0,0,0-2.48-3.63,24.8,24.8,0,0,0,6.62-2.92l-5.36,1.59L262,171C263.73,170.75,265.82,170.32,268.16,169.85Zm21.24-6.8v-1.29H267.73v2.3a9.79,9.79,0,0,0,2.12-2.16l4.46.83-.82,1.15h2.44l.72-.18,2.92,1.33-.36.9,2.09-.57v-2.31Zm-19.94,13.68h18.35a19.35,19.35,0,0,1-2.95-2.12v1.11h-12v-1.33A25.42,25.42,0,0,1,269.46,176.73Zm2.87-7.63a14.32,14.32,0,0,0,1.62-2.16l-3.49,0C271.15,167.62,271.76,168.38,272.33,169.1Zm9.62,2.37a24.71,24.71,0,0,1-3-5.07,20.44,20.44,0,0,1-3.16,5.07Zm3.63-2.3a16.73,16.73,0,0,0,1.69-2.27h-3.42A17,17,0,0,0,285.58,169.17Z" transform="translate(-64 -59.9)"/><path d="M483.87,168.81a83.9,83.9,0,0,1,6.91,8.24l-4.46,2.74c-.47-.76-1.08-1.62-1.8-2.59l-6.88.57V184c0,2.44-.47,3.78-2.3,4.57s-3.93.83-6.59.83a18.87,18.87,0,0,0-1.91-5.12c1.69.11,4,.11,4.68.11s.79-.14.79-.54v-5.68c-3.34.32-5.5.54-7,.72l4.79,1.72a39.25,39.25,0,0,1-7.88,7.42,36.52,36.52,0,0,0-4.57-3.49A22.47,22.47,0,0,0,464.5,179a14.49,14.49,0,0,0-2.55.62,43.84,43.84,0,0,0-1.51-4.72,16.34,16.34,0,0,0,5-1.84,42.85,42.85,0,0,0,4.46-2.34c-4.54.36-5.72.54-6.62.9-.26-1-1-3.42-1.52-4.75a9.66,9.66,0,0,0,3.14-1.26,38.13,38.13,0,0,0,4.35-2.59c-2.91.43-5.87.79-8.67,1.08a16.86,16.86,0,0,0-1.48-4.43c8.46-.9,17.49-2.59,23.22-4.86l3.88,4.14A69.8,69.8,0,0,1,476,161.83l1.65,1.08a52.63,52.63,0,0,1-5.29,3.49l4.68-.22a40,40,0,0,0,3.71-3l3.85,3.49A69,69,0,0,1,474,173.53l7.31-.51-1.73-2Zm-.72,9.36a46.08,46.08,0,0,1,8,6.37l-4.68,3.1a45,45,0,0,0-7.63-6.7Z" transform="translate(-64 -59.9)"/><path d="M502.23,180a40.34,40.34,0,0,1-1.4,8.89,23.42,23.42,0,0,0-3.82-1.37,29.4,29.4,0,0,0,1.26-8.17Zm-4.93-6.12c1-.29,1.76-1,2.92-2.41.36-.4,1-1.19,1.69-2.2a9.75,9.75,0,0,0-3.31.72c-.26-1-1.05-3.27-1.55-4.53.72-.22,1.29-.87,2-2a37.3,37.3,0,0,0,3.85-8.64l4.64,1.95a50.74,50.74,0,0,1-4.6,8.53l1.54-.11a47.9,47.9,0,0,0,2.74-5.51l3.81,2.45v-3h5.84c.54-1.36,1-2.77,1.44-4.17l5.75,1.4c-.35.94-.75,1.84-1.15,2.77H531V164H520.48c-.9,1.66-1.87,3.24-2.77,4.68l5.94-.5-1.3-2.2,4.21-1.87a41.27,41.27,0,0,1,4.83,9.11l-4.57,2.12a21.13,21.13,0,0,0-1.05-2.91l-.57.07v10.29c0,1.23,0,1.37.54,1.37h.9c.57,0,.68-.68.79-5a13.62,13.62,0,0,0,4.35,1.94c-.43,6-1.58,7.67-4.6,7.67h-2.34c-3.71,0-4.54-1.51-4.54-5.9v-9.79l-1.26.18c-.29,7.3-1.19,12.92-6.87,16.34a13.62,13.62,0,0,0-3.17-4.14c4.32-2.45,4.89-6.26,5.11-11.52a9.29,9.29,0,0,0-1.8.54,51.2,51.2,0,0,0-1.76-5c1-.29,1.62-1.08,2.55-2.52a25.05,25.05,0,0,0,1.62-2.92H511v-.86a50.31,50.31,0,0,1-4.32,6.84l2.56-1a28.67,28.67,0,0,1,2.52,7.31l-3.67,1.55a14.73,14.73,0,0,0-.29-1.59c-6.77,1.3-8.06,1.73-8.93,2.2A33.81,33.81,0,0,0,497.3,173.85Zm8.75,5.11a63.79,63.79,0,0,1,.93,7.34l-3.85,1a61.81,61.81,0,0,0-.68-7.41Zm-1.69-6,2.37-.36-.68-1.77Zm5.43,4.82a46,46,0,0,1,1.69,5.54l-3.6,1.33a42.07,42.07,0,0,0-1.51-5.68Z" transform="translate(-64 -59.9)"/><path d="M545.61,178.06a32.55,32.55,0,0,1-3.74,9.14l-4.72-2.62a24.39,24.39,0,0,0,3.71-8.25Zm21.53-21.38v17.64H554.9a23.42,23.42,0,0,1,5.47,4l-3.74,3.56a24.42,24.42,0,0,0-5.19-4.17l-1.58-.94,2.55-2.41H540.82V156.68Zm-21.38,6.7h5.65v-2.2h-5.65Zm0,6.44h5.65v-2.27h-5.65Zm5.68,7.85v5.14c0,1.12.29,1.23,1.91,1.23h4.18c1.36,0,1.62-.47,1.83-3.82a15.49,15.49,0,0,0,4.72,1.91c-.58,5.29-2,6.62-6.12,6.62h-5.29c-5.26,0-6.52-1.47-6.52-5.87v-5.21Zm5-14.29H562v-2.2h-5.47Zm0,6.44H562v-2.27h-5.47Zm10.3,6.37a30.21,30.21,0,0,1,4.53,8.68L566.2,187a30.76,30.76,0,0,0-4.1-8.89Z" transform="translate(-64 -59.9)"/><path d="M608.61,158.84A51.66,51.66,0,0,1,603,165h6.91v4.35H597.74c-.94.72-1.91,1.4-2.88,2.09h11.23v3.92H592.91l-1,2.09h13.57a19.93,19.93,0,0,1-.33,2.09c-.79,4.6-1.69,7.12-3,8.31a6.57,6.57,0,0,1-4.46,1.48c-1.41.11-3.71.11-6.2,0a10,10,0,0,0-1.76-4.82c2.34.18,5.26.25,6.41.25a3.1,3.1,0,0,0,1.83-.36,5.14,5.14,0,0,0,1.44-2.81H584.2c1-1.58,2.13-3.63,3.1-5.65a86.65,86.65,0,0,1-8.53,3.93,27.57,27.57,0,0,0-1.87-4.72,66.82,66.82,0,0,0,12.74-5.83H578.08V165h11.13v-2.13h-8.14v-4.21h8.14V155.2h5.18v3.46h7v1.62a41.46,41.46,0,0,0,3.24-3.74ZM596,165c.87-.69,1.73-1.41,2.56-2.13h-4.21V165Z" transform="translate(-64 -59.9)"/><rect class="cls-4" x="196.3" y="100.06" width="35.25" height="35.25" transform="translate(-84.56 125.84) rotate(-45)"/><rect x="196.3" y="90.06" width="35.25" height="35.25" transform="translate(-77.49 122.91) rotate(-45)"/><path class="cls-5" d="M210,113.41v-.36a3.46,3.46,0,0,0,2.16-1,1.91,1.91,0,0,0,.41-.83,6.38,6.38,0,0,0,.12-1.42v-8.28a5.51,5.51,0,0,0-.21-1.76,1.47,1.47,0,0,0-.76-.86,4.84,4.84,0,0,0-1.65-.36v-.36l5.33-1.12v12.74a5.52,5.52,0,0,0,.15,1.52,2,2,0,0,0,.51.86,3.62,3.62,0,0,0,2,.83v.36Zm2-.59h3.42l-.45-.34a2.63,2.63,0,0,1-.4-.32.7.7,0,0,1-.18-.29,1,1,0,0,1-.06-.39V97.79l-2.84.59.91.52.08,0,.28.18a.91.91,0,0,1,.32.75v11.21a3,3,0,0,0,0,.39,1,1,0,0,1-.11.53,2.45,2.45,0,0,1-.51.47Z" transform="translate(-64 -59.9)"/><rect class="cls-4" x="517.3" y="100.06" width="35.25" height="35.25" transform="translate(9.46 352.82) rotate(-45)"/><rect x="517.3" y="90.06" width="35.25" height="35.25" transform="translate(16.53 349.89) rotate(-45)"/><path class="cls-5" d="M532,111h4.06a5.93,5.93,0,0,0,2.51-.45,4.35,4.35,0,0,0,1.7-1.47h.39l-1.13,4.34h-9.2v-.48a16.6,16.6,0,0,1,1.24-2.21c.48-.71,1.18-1.62,2.09-2.73l1-1.23.63-.76a13.24,13.24,0,0,0,1.69-2.62,5.34,5.34,0,0,0,.51-2.25,4.55,4.55,0,0,0-.34-1.78,3.08,3.08,0,0,0-1-1.28,2.11,2.11,0,0,0-1.31-.46c-1,0-1.49.61-1.53,1.82l0,.63c0,1-.4,1.42-1.11,1.42a1.13,1.13,0,0,1-.86-.36,1.41,1.41,0,0,1-.34-1,2.31,2.31,0,0,1,.6-1.53,4.2,4.2,0,0,1,1.63-1.11,6.22,6.22,0,0,1,2.26-.41,5.62,5.62,0,0,1,2.47.54,4.19,4.19,0,0,1,1.74,1.5,3.79,3.79,0,0,1,.63,2.14,4,4,0,0,1-.31,1.58,5.93,5.93,0,0,1-1,1.57,16,16,0,0,1-1.89,1.79l-1.9,1.57A18,18,0,0,0,532,111Zm6.65,1.84.42-1.56a4.91,4.91,0,0,1-2.51.57h-5.21c-.19.36-.36.68-.51,1ZM533.16,97.9a2.72,2.72,0,0,0-1.7,2.3.91.91,0,0,0,.13.49.4.4,0,0,0,.34.2c.28,0,.42-.21.42-.64a4.16,4.16,0,0,1,.18-1.37A2.91,2.91,0,0,1,533.16,97.9Zm1,10.08c1-.87,1.86-1.74,2.69-2.6a12.65,12.65,0,0,0,1.83-2.31,4,4,0,0,0,.5-1.92,3.57,3.57,0,0,0-.37-1.67,3.19,3.19,0,0,0-1.06-1.22,3.6,3.6,0,0,0-1.6-.6A3.29,3.29,0,0,1,537.49,99a4.57,4.57,0,0,1,.45,2.09,5.34,5.34,0,0,1-.34,1.88,9,9,0,0,1-1.06,2A33.58,33.58,0,0,1,534.19,108Z" transform="translate(-64 -59.9)"/><rect class="cls-4" x="848.3" y="100.06" width="35.25" height="35.25" transform="translate(106.41 586.87) rotate(-45)"/><rect x="848.3" y="90.06" width="35.25" height="35.25" transform="translate(113.48 583.94) rotate(-45)"/><path class="cls-5" d="M869,103.92a5.83,5.83,0,0,1,1.66,1.06,4.23,4.23,0,0,1,1,1.52,4.71,4.71,0,0,1,.37,1.86,4.89,4.89,0,0,1-.78,2.7,5.47,5.47,0,0,1-2.13,1.94,6.4,6.4,0,0,1-3,.71,5.67,5.67,0,0,1-3.09-.79,2.32,2.32,0,0,1-1.23-2,1.25,1.25,0,0,1,.33-.9,1.1,1.1,0,0,1,.86-.35.9.9,0,0,1,.89.5,3.6,3.6,0,0,1,.26,1,2.4,2.4,0,0,0,.64,1.48,2.27,2.27,0,0,0,1.53.44,3.4,3.4,0,0,0,1.77-.47,3.49,3.49,0,0,0,1.28-1.28,3.53,3.53,0,0,0,.47-1.78,3.69,3.69,0,0,0-1.36-2.84,9.22,9.22,0,0,0-3.93-1.82v-.37a5.55,5.55,0,0,0,2-.77,3.58,3.58,0,0,0,1.28-1.4,4.16,4.16,0,0,0,.44-1.91,3.71,3.71,0,0,0-.59-2.17,1.86,1.86,0,0,0-1.57-.83,1.28,1.28,0,0,0-1.16.58,2.18,2.18,0,0,0-.22.5c0,.17-.12.54-.22,1.11a2.19,2.19,0,0,1-.41,1.08,1,1,0,0,1-1.54,0,1.24,1.24,0,0,1-.3-.87,2.22,2.22,0,0,1,.55-1.46,3.77,3.77,0,0,1,1.52-1,5.59,5.59,0,0,1,2.12-.38,6.26,6.26,0,0,1,1.82.25,4.28,4.28,0,0,1,1.43.73,3.14,3.14,0,0,1,.91,1.13,3.63,3.63,0,0,1-.18,3.33A4.71,4.71,0,0,1,869,103.92ZM864,113a3,3,0,0,1-.69-.85,2.55,2.55,0,0,1-.26-1l0-.32c0-.33-.14-.5-.39-.5s-.45.21-.45.63a1.72,1.72,0,0,0,.46,1.18A3.34,3.34,0,0,0,864,113Zm.86-15.44a3.3,3.3,0,0,0-1.6.93,2.05,2.05,0,0,0-.6,1.42.65.65,0,0,0,.11.4.39.39,0,0,0,.32.15c.27,0,.43-.2.48-.59a4.25,4.25,0,0,1,.42-1.4A3.07,3.07,0,0,1,864.88,97.55Zm3.84,15.13a4.34,4.34,0,0,0,2.38-3.85c0-2.08-1.28-3.62-3.83-4.6,1.77-.89,2.65-2.08,2.65-3.6a3.51,3.51,0,0,0-.32-1.5,2.71,2.71,0,0,0-.91-1.1,2.93,2.93,0,0,0-1.39-.49,3.06,3.06,0,0,1,1.43,2.91,4.67,4.67,0,0,1-.37,1.9,4,4,0,0,1-1.11,1.46,5.16,5.16,0,0,1-1.77.93,9.59,9.59,0,0,1,2.6,1.16,5.15,5.15,0,0,1,1.64,1.61,3.68,3.68,0,0,1,.56,2,3.9,3.9,0,0,1-.15,1.1,3.38,3.38,0,0,1-.43,1A7.25,7.25,0,0,1,868.72,112.68Z" transform="translate(-64 -59.9)"/><path d="M804.35,159.81l-.61,1.23h6.63l.86-.22,3.81,2.45c-.64,1.22-1.51,2.66-2.44,4.1h10.22v4.72H799.24v2c0,5.62-1,14.08-5.94,19.12a19.85,19.85,0,0,0-4.06-3.5c4.42-4.46,4.82-11,4.82-15.69v-.68l-1.22,1a16.74,16.74,0,0,0-3.82-4,25.9,25.9,0,0,0,9.58-11.56Zm-4.53,7.56h6.69c.36-.65.76-1.33,1.12-2h-6.37C800.83,166,800.32,166.72,799.82,167.37Zm19,6.66s0,1.15-.07,1.73c-.26,5-.62,7.49-1.48,8.53a4.39,4.39,0,0,1-2.81,1.4,29.72,29.72,0,0,1-4.32.15,11,11,0,0,0-1.33-4.5,19.48,19.48,0,0,0,3,.14,1.3,1.3,0,0,0,1.11-.36,5.29,5.29,0,0,0,.58-2.66h-7.13v7.95c0,1.69.4,1.91,2.92,1.91h6.87c2.27,0,2.63-.72,2.92-5.07a16,16,0,0,0,4.79,1.9c-.69,6.16-2.2,7.89-7.35,7.89h-7.66c-5.8,0-7.6-1.41-7.6-6.56V174Z" transform="translate(-64 -59.9)"/><path d="M836.83,159v6.59h2.23v4.82h-2.23v1.12c.75,1,2.95,4.39,3.45,5.22l-2.19,3.42c-.29-.83-.76-2-1.26-3.13v16.16H832.4V181a26.2,26.2,0,0,1-1.94,4.82,37.49,37.49,0,0,0-2-5.18c1.59-2.38,2.92-6.55,3.67-10.23h-2.62v-4.82h2.84V159Zm15.91,6.56a2.36,2.36,0,0,0,1.22-1.23A23.69,23.69,0,0,0,855.9,159l3.71.94a34.29,34.29,0,0,1-2.66,5.44l1-.08c.28-.68.57-1.4.83-2.08l3.67,1.18a39.59,39.59,0,0,1-3.67,6.16l2.77-.76a42.81,42.81,0,0,1,1.54,5.15l-3.06,1-.28-1.37-1.37.22c.79.68,1.73,1.44,2.27,2l-.9.79h2.8v3.92h-3.85l2.67,1a21.11,21.11,0,0,1-3.64,5,2.79,2.79,0,0,0,1.37.65c.65.07,1-1.19,1.26-3.67a13.74,13.74,0,0,0,3.24,2.74c-1.05,4.85-2.74,6-4.36,5.93a7.26,7.26,0,0,1-5-2.73,25.33,25.33,0,0,1-5.4,2.73,20.29,20.29,0,0,0-2.66-3.34,21,21,0,0,0,5.94-3,29.39,29.39,0,0,1-1.69-5.33H846L846,182c1.37,1.11,3.35,2.66,4.32,3.63l-3.1,3.1a29.76,29.76,0,0,0-2.19-2.2,14.75,14.75,0,0,1-4.68,6.62,18.94,18.94,0,0,0-3.49-2.95,11.58,11.58,0,0,0,4.82-8.71h-1.8v-3.92h9.79c-.54-3.49-.93-7.49-1.19-11.92a40.13,40.13,0,0,1-3.16,5.19l2.8-.72a37.37,37.37,0,0,1,1.16,5.11l-3.14.93-.14-1.08c-3.82.58-4.72.83-5.22,1.12-.18-.72-.79-2.52-1.15-3.46a3.89,3.89,0,0,0,1.76-1.65,26.23,26.23,0,0,0,1.41-2.23,7.36,7.36,0,0,0-2.41.54,30.64,30.64,0,0,0-1.19-3.42,2.53,2.53,0,0,0,1.26-1.26,23.43,23.43,0,0,0,2-5.58l3.75.93a31.74,31.74,0,0,1-2.81,5.73l1-.08c.28-.68.57-1.4.82-2.08l3.21,1-.22-5.4h4.29c.07,4.75.32,9.15.72,13a3.83,3.83,0,0,0,1.76-1.62,24.39,24.39,0,0,0,1.4-2.23,7.21,7.21,0,0,0-2.44.54C853.71,168.2,853.13,166.51,852.74,165.54Zm-8.53,6.73,1.22-.15-.25-1.11Zm9,.21c.22,1.84.43,3.53.72,5.08h2.38l-1.23-1.12,1.62-1.37a7.92,7.92,0,0,0-2.41.69A32.59,32.59,0,0,0,853.24,172.48Zm1.55,9c.21.76.43,1.44.65,2.09a20.38,20.38,0,0,0,1.33-2.09Zm3.06-9.68,1.19-.15-.33-1Z" transform="translate(-64 -59.9)"/><path d="M883.3,176.59l-.61,1.65h1.73l.75-.07,2.52.54a21.56,21.56,0,0,1-2.8,8.31,11.06,11.06,0,0,0,4.06,1.19A18.44,18.44,0,0,0,886,185.8a5.64,5.64,0,0,0,2.55-5.15v-2.23h9v5.51c0,.83,0,.9.32.9h.4c.36,0,.46-.47.57-2.7a9.85,9.85,0,0,0,3,1.19c-.25,3.24-1.08,4.24-3.1,4.24h-1.62c-2.55,0-3.31-.82-3.31-3.63v-1.8h-1.26a8.62,8.62,0,0,1-3,6.16c.93.07,1.9.1,2.95.1,1.8,0,8.2,0,10.47-.07a14.49,14.49,0,0,0-1.47,4.21H892.3c-4.17,0-7.49-.47-10.08-2.3a16.85,16.85,0,0,1-5.32,3.13,15.19,15.19,0,0,0-2.2-3.6,12.36,12.36,0,0,0,4.68-2.55,10.53,10.53,0,0,1-1-1.73c-.4.47-.76.86-1.15,1.26a22.79,22.79,0,0,0-1.55-1.8,24.91,24.91,0,0,1-3.06,8.35,20.15,20.15,0,0,0-4.07-3.13c2.95-4.76,3.17-11.7,3.17-16.53v-8.24h11.16V159h5.25v1.7h11.2v3.6h-11.2v1.11h9.76l.79-.18,3.74.83a38.87,38.87,0,0,1-2.37,6.84l-4.36-1.19c.25-.68.5-1.51.76-2.41H887.8v.83l7.78-.36.14,3.06-7.81.39c.14.43.5.61,1.44.61h6.15a27.28,27.28,0,0,0,4.94-.36c.14,1.34.25,2.63.43,3.71a23.38,23.38,0,0,1-4.9.33H888.7c-4.21,0-5.54-1.26-5.79-4l-5.26.29-.14-3.13,5.36-.25v-1.08h-6.19v4.39a68,68,0,0,1-.47,8.13,21.17,21.17,0,0,0,3.24-6.22Zm-2.48,5.4a11.31,11.31,0,0,0,1,2.15,13,13,0,0,0,1.08-2.48H881Z" transform="translate(-64 -59.9)"/><path d="M912.18,183.68V176h-3.39v-4.78h3.39v-5.51h-3.71v-4.82h12.34v4.82h-3.67v5.51h3V176h-3v6.23l3.28-1,.9,5c-4.07,1.41-8.53,2.85-12.13,4L908,184.79C909.22,184.5,910.63,184.11,912.18,183.68Zm16.66,3.67v-2.59h-7v-4.68h7v-2.45h-6.91V160.42h19.19v17.21h-6.91v2.45h7.23v4.68h-7.23v2.59h8.42v4.71H919.45v-4.71ZM926.65,167h2.7v-2.15h-2.7Zm0,6.27h2.7V171h-2.7ZM933.7,167h2.45v-2.15H933.7Zm0,6.27h2.45V171H933.7Z" transform="translate(-64 -59.9)"/><path d="M123,233.22l-1.51,1.66a44.93,44.93,0,0,0-2.14-4.73v10h-2V230.08c-.5,2.57-1.49,5.62-2.74,7.22a15,15,0,0,0-1-2.28,16.24,16.24,0,0,0,2.35-5.83l1.39.48V228H114V225.9h3.36v-8h2v8h2.81V228h-2.81v2.06l1.18-.84C120.94,229.84,122.6,232.55,123,233.22Zm-7.32-13.77a40.82,40.82,0,0,1,1.25,5.09l-1.68.43a45.18,45.18,0,0,0-1.18-5.14Zm14.71-1.59v1.87h5.52v1.66h-5.52v1.27h5v1.59h-5v1.34h5.79v1.7H122.58v-1.7h5.57v-1.34h-4.66v-1.59h4.66v-1.27h-5.26v-1.2c-.65,1.68-1.39,3.67-2,4.9l-1.44-.53a34.93,34.93,0,0,0,1.54-5.11l1.87.6v-.32h5.26v-1.87Zm4.49,10.68V238c0,1-.19,1.54-.91,1.85a9.64,9.64,0,0,1-3.29.31,6.45,6.45,0,0,0-.6-1.85c1,.05,2,.05,2.28,0s.41-.1.41-.36v-1.59h-7.08a8.53,8.53,0,0,1-1.75,4.06,7.28,7.28,0,0,0-1.59-1.46c1.42-1.78,1.56-4.13,1.56-6.05v-4.35Zm-8.9,4.76c0,.48,0,1-.07,1.51h6.86V233.3Zm6.79-3.05h-6.79v1.49h6.79Z" transform="translate(-64 -59.9)"/><path d="M155.51,218a19,19,0,0,1,1.15,2.42h4.68v1.75H156.2v1.49h4.27v1.47H156.2v1.49h4.3v1.48h-4.3v1.54h5.5v1.82H150.13v1h-2.21v-8.14c-.38.41-.77.79-1.15,1.13A12,12,0,0,0,145,224l-1,1.46a20.91,20.91,0,0,0-3.74-1.92l1.15-1.56a24.5,24.5,0,0,1,3.79,1.75l-.09.15a17.66,17.66,0,0,0,4.7-6.17l2.14.67c-.31.67-.7,1.34-1.08,2h3.29c-.24-.62-.53-1.29-.82-1.87Zm-3,14.06v1.61h9.84v2h-9.84v4.49h-2.33v-4.49h-9.57v-2h9.57V232Zm-6.82-6.09,1.2,1.51c-1.36,1.7-2.92,3.53-4.41,5.14l-1.59-1.73A57.16,57.16,0,0,0,145.66,225.93Zm-2.49-8a18.56,18.56,0,0,1,3.84,1.83l-1.23,1.75a19.77,19.77,0,0,0-3.76-2Zm10.87,4.2h-3.91v1.49H154Zm-3.91,3v1.49H154v-1.49Zm3.91,3h-3.91v1.54H154Z" transform="translate(-64 -59.9)"/><path d="M172.14,230.75a22.73,22.73,0,0,0,.16-3.07v-.55h-4.6V225h4.6v-7h2.26v7h4.23v2.16h-4.23v.57c0,1,0,2-.12,3.05h5v2.11H174.1a10.93,10.93,0,0,1-5,7.44,11.6,11.6,0,0,0-1.71-1.63,9.53,9.53,0,0,0,4.3-5.81h-4.87v-2.11Zm-2.81-11.52a38,38,0,0,1,2.35,4.51l-2,.87a32.08,32.08,0,0,0-2.25-4.66Zm10.25.5a46.07,46.07,0,0,1-2.55,5.12,13.31,13.31,0,0,0-1.89-.94,26,26,0,0,0,2.37-4.78Zm3.31,1v13.41h-2.21V220.77Zm5-2.43v18.94c0,1.44-.33,2.09-1.2,2.47a13.79,13.79,0,0,1-4.53.43,9.76,9.76,0,0,0-.82-2.32c1.66,0,3.17,0,3.65,0s.65-.14.65-.6V218.34Z" transform="translate(-64 -59.9)"/><path d="M196.86,218a15.46,15.46,0,0,1,2.18,3.12l-1.61.72h3.46v1.82H193v-1.82H197a16.46,16.46,0,0,0-2-3.1Zm3.6,10.39v1.75h-6.65V228.4Zm-.2,3.29v7.1h-4.48v1.06H194v-8.16Zm0-6.53v1.75H194v-1.75ZM195.78,237h2.61v-3.46h-2.61Zm14.33-.34h-4.44l1.56.94a19.32,19.32,0,0,1-5.45,2.59,11.9,11.9,0,0,0-1.44-1.39,17.73,17.73,0,0,0,4.89-2.14h-2.78v-7.15h11.69v7.15h-3.48c1.73.7,3.55,1.49,4.73,2.07l-1.23,1.48c-1.17-.64-3.14-1.58-4.92-2.35Zm-.92-18.77v1.2H215v1.49h-5.76v1h5.09V223H202.4v-1.39H207v-1h-5.38v-1.49H207v-1.2Zm5.6,5.95v4.93H201.71v-4.93Zm-11.26,3.73h2V225h-2Zm1,4.1H212v-.89h-7.54Zm0,1.87H212v-.91h-7.54Zm0,1.87H212v-.93h-7.54Zm2.52-7.84h2.3V225H207Zm3.77,0h2.11V225h-2.11Z" transform="translate(-64 -59.9)"/><path d="M222.18,222.78a33.41,33.41,0,0,1-1.13,6.63l-1.83-.63a28.53,28.53,0,0,0,1.2-6.24Zm2.83-5v4l1.29-.58a33.57,33.57,0,0,1,1.61,3.62l-1.58.84a30.36,30.36,0,0,0-1.32-3.38v17.81H222.9V217.81Zm15.22,10.64v9.41c0,1-.22,1.63-1,1.92a10.19,10.19,0,0,1-3.58.33,8.59,8.59,0,0,0-.62-1.92c1.1.05,2.25,0,2.56,0s.44-.12.44-.41v-1.37h-7.9a8.54,8.54,0,0,1-1.68,3.94,7.7,7.7,0,0,0-1.63-1.54c1.37-1.75,1.48-4.13,1.48-6v-4.37Zm-4.95-10.59v1.78h5.62v1.65h-5.62v1.3h4.92v1.58h-4.92v1.4h6.36v1.68H226.9v-1.68h6.15v-1.4h-4.82v-1.58h4.82v-1.3H227.5v-1.65h5.55v-1.78Zm-4.8,15.44c0,.48,0,1-.07,1.51h7.66V233.3Zm7.59-3.22h-7.59v1.56h7.59Z" transform="translate(-64 -59.9)"/><path d="M248.6,233.82v-8h-2.52v-2.14h2.52v-5.52h2.21v5.52H253v2.14h-2.21V233l2.4-.89.45,2.09c-2.49,1-5.13,2.07-7.22,2.88l-.74-2.33C246.51,234.54,247.52,234.21,248.6,233.82Zm17.52-7v7.09h-2.73v3.4c0,.36,0,.56.16.63a.91.91,0,0,0,.56.12H265a3.15,3.15,0,0,0,.7-.07.68.68,0,0,0,.36-.51c0-.31.07-1,.09-1.94a5.48,5.48,0,0,0,1.78.93,9,9,0,0,1-.31,2.31,1.57,1.57,0,0,1-1,.84,4.85,4.85,0,0,1-1.47.19h-1.6a2.81,2.81,0,0,1-1.73-.48c-.43-.34-.63-.79-.63-2.14V233.9h-2c-.41,3.33-1.64,5.23-6.1,6.31a5.52,5.52,0,0,0-1.18-1.75c3.84-.77,4.8-2.07,5.14-4.56h-2.28v-7.09Zm-1.2-4.87-.93,1.92h3.36v1.92H253.81v-1.92H257a11.84,11.84,0,0,0-.65-2l1.85-.38a15,15,0,0,1,.82,2.28l-.39.09H262a17.54,17.54,0,0,0,.86-2.32Zm-3.81-4.25a15.91,15.91,0,0,1,.76,1.8h4.85v1.85H254.53v-1.85h5a10,10,0,0,0-.53-1.39Zm-4.16,12h7v-1.32h-7Zm0,2.73h7V231h-7Z" transform="translate(-64 -59.9)"/><path d="M274.78,232.34c1.85-.7,2.93-1.8,3.05-3.24l-.33,0a1.92,1.92,0,1,1,0-3.84c1.51,0,2.31,1.18,2.31,3a5.85,5.85,0,0,1-4.42,5.62Z" transform="translate(-64 -59.9)"/><path d="M292.28,217.86v4.73h2.78v2.11h-2.78v4.18l2.76-.75.29,2.09-3.05.87v6.36c0,1.17-.24,1.75-.94,2.09a8.43,8.43,0,0,1-3.45.4,9.33,9.33,0,0,0-.67-2.06c1,0,2.08,0,2.4,0s.45-.12.45-.45v-5.74l-2.93.82-.62-2.19c1-.24,2.23-.52,3.55-.88V224.7h-3.24v-2.11h3.24v-4.73Zm15.15,10a24.26,24.26,0,0,1-4.3,6.34c.79,1.85,1.78,2.95,2.95,3.09.63,0,1-1.2,1.18-3.81a7.64,7.64,0,0,0,1.89,1.27c-.57,4.15-1.68,5.33-2.95,5.23-2.16-.19-3.72-1.61-4.89-4a21.62,21.62,0,0,1-5,3.34,9.35,9.35,0,0,0-1.8-1.75,20.14,20.14,0,0,0,5.95-3.82,39.72,39.72,0,0,1-1.49-7.46l-3.38.36-.24-2.19,3.41-.33c-.17-1.95-.29-4-.39-6.17h2.31c.07,2.09.17,4.08.36,5.93l7.32-.72.24,2.11-7.35.77a41,41,0,0,0,1.08,5.76,20.47,20.47,0,0,0,3.27-5.07Zm-3.72-9.6a24.18,24.18,0,0,1,3.28,3.48L305.17,223a25.38,25.38,0,0,0-3.17-3.6Z" transform="translate(-64 -59.9)"/><path d="M317,229.89v6.62h5.86v-8h-7.22V220h2.4v6.29h4.82v-8.37h2.52v8.37h5V220h2.5v8.5H325.4v8h5.93v-6.65h2.52v10.25h-2.52v-1.34H314.5v-8.88Z" transform="translate(-64 -59.9)"/><path d="M124,247.65v8.68h-6.67V269h-2.23V247.65Zm-2.13,1.77h-4.54v1.71h4.54Zm-4.54,3.29v1.85h4.54v-1.85Zm12.17,5.57v7.27h-7.06v1.39h-2.09v-8.66Zm-7.06,5.38h4.92v-3.51h-4.92Zm12.63-16v18.43c0,1.37-.29,2.06-1.18,2.45a13.79,13.79,0,0,1-4.49.41,8.45,8.45,0,0,0-.79-2.33c1.51.07,3.1.05,3.58.05s.6-.17.6-.6v-9.73h-6.84v-8.68h9.12Zm-2.28,1.75H128.1v1.73h4.68Zm-4.68,3.31v1.87h4.68v-1.87Z" transform="translate(-64 -59.9)"/><path d="M143.74,259.82c0,.91-.07,1.82-.16,2.71a6.08,6.08,0,0,0,1.53,2.16v-6h-4.63V257H151.3v1.7h-4.24V261h3.81v1.7h-3.81v3.17a20.3,20.3,0,0,0,6.45.77c1.32,0,7.54,0,9.22-.07a5.83,5.83,0,0,0-.77,1.89h-8.45c-4.92,0-8.23-.5-10.29-3.5a9.17,9.17,0,0,1-1.78,4.1,7.58,7.58,0,0,0-1.39-1.51c1.41-1.7,1.75-4.78,1.82-7.7ZM150,247.65v7.7h-8.28v-7.7Zm-6.26,3.07h4.15v-1.51h-4.15Zm0,3.05h4.15v-1.54h-4.15Zm12.12,8.9a15.25,15.25,0,0,1-4.27,3.55,12.23,12.23,0,0,0-1.49-1.36A11.65,11.65,0,0,0,154,262.1ZM155.07,251c.17-.51.34-1.06.48-1.59h-4.39v-1.65h11v1.65h-4.54L157,251h4.32v10.77H152V251Zm-1,3.09h5.14v-1.48h-5.14Zm0,3h5.14v-1.49h-5.14Zm0,3.05h5.14v-1.52h-5.14Zm4.85,1.82a19.39,19.39,0,0,1,3.68,3.07l-1.64,1a19.52,19.52,0,0,0-3.6-3.22Z" transform="translate(-64 -59.9)"/><path d="M172.3,246.66v4.56h2.57v2.11H172.3v.89c.63.84,2.4,3.6,2.81,4.28l-1.37,1.55c-.28-.71-.86-1.92-1.44-3v11.88h-2.18V258.62a24.37,24.37,0,0,1-2.52,5.66,13.06,13.06,0,0,0-1.15-2.23,25.42,25.42,0,0,0,3.6-8.72h-3v-2.11h3.07v-4.56Zm16.25,12.17a20.5,20.5,0,0,1-3.74,4.63,46.1,46.1,0,0,1,4.27,3.75l-1.75,1.51a35.67,35.67,0,0,0-4.13-3.91,25.89,25.89,0,0,1-7.87,4.15,14.06,14.06,0,0,0-1.32-1.9c5.59-1.7,10.15-5.08,12.19-9Zm-6.09-12.34a13,13,0,0,1,1.34,3.27h5.07v2.06H182.1c-.77,1.25-1.75,2.86-2.57,4.08l3.7-.19a14.72,14.72,0,0,0,1.36-2.14l2.14.72a23.23,23.23,0,0,1-10.25,9.32,10.84,10.84,0,0,0-1.27-1.75,20.89,20.89,0,0,0,6.24-4.18c-4,.31-4.78.43-5.26.62a16.23,16.23,0,0,0-.6-2.11,3.67,3.67,0,0,0,1.73-.72,38.64,38.64,0,0,0,2.38-3.65h-4.35v-2.06h6a15.51,15.51,0,0,0-1.06-2.59Z" transform="translate(-64 -59.9)"/><path d="M197.43,255.5a53.81,53.81,0,0,1-2,9.72l-2.28-.94a40.84,40.84,0,0,0,2-9.22Zm4.2-2.07V265c0,1.13.24,1.32,1.52,1.32h4.1c1.39,0,1.58-.79,1.78-4.77a7.1,7.1,0,0,0,2.13,1c-.29,4.56-.93,5.93-3.74,5.93h-4.49c-2.83,0-3.65-.79-3.65-3.46V253.43Zm.2-6.14a44.13,44.13,0,0,1,6.57,5.18l-1.65,1.75a42.34,42.34,0,0,0-6.49-5.42Zm10.51,7.08a46.56,46.56,0,0,1,3.19,9l-2.28.94a43.78,43.78,0,0,0-3-9.12Z" transform="translate(-64 -59.9)"/><path d="M438.71,223.62a28.64,28.64,0,0,1-2,3v13.56h-2.14v-11a22.75,22.75,0,0,1-2.35,2.21,13.08,13.08,0,0,0-1.22-2.06,21.58,21.58,0,0,0,5.69-6.48Zm-.5-5a26.81,26.81,0,0,1-5.74,5.81,14.36,14.36,0,0,0-1.22-1.65,20,20,0,0,0,4.94-4.95Zm4.49,10.64c-.1,1.25-.22,2.4-.41,3.48a6.61,6.61,0,0,0,2.93,4.17v-9.5h.6a12.64,12.64,0,0,0-1.4-1c2.41-1.78,3.7-4.8,4.21-8.57l2.18.29a21.26,21.26,0,0,1-1,4,31.49,31.49,0,0,1,4,4.06l-1.54,1.53a28.24,28.24,0,0,0-3.26-3.65,12.24,12.24,0,0,1-2.45,3.39h.74v3.77h5v1.92h-5v4.56a14.24,14.24,0,0,0,2,.14c.58,0,3.53,0,4.34,0a6.92,6.92,0,0,0-.67,2.06h-3.86c-3.46,0-6-.84-7.66-4.13a10.42,10.42,0,0,1-2.74,4.35,11.51,11.51,0,0,0-1.72-1.47c2.37-2,3.21-5.28,3.43-9.5Zm1.65-11.07a26.79,26.79,0,0,1-1,3.63,21.56,21.56,0,0,1,2.52,2.11l-1.06,1.75a21.05,21.05,0,0,0-2.21-2,13.92,13.92,0,0,1-3,4.35,9.81,9.81,0,0,0-1.64-1.56c2.24-1.9,3.6-5,4.25-8.6Z" transform="translate(-64 -59.9)"/><path d="M462.74,217.89v4.68h2.54v2.11h-2.54v4.25l2.3-.67.31,2.06-2.61.82v6.26c0,1.15-.22,1.73-.87,2.09a6.77,6.77,0,0,1-3.17.41,7.83,7.83,0,0,0-.6-2.09c1,0,1.85,0,2.14,0s.41-.09.41-.43v-5.62l-2.55.77-.52-2.18,3.07-.84v-4.85h-2.81v-2.11h2.81v-4.68Zm6.45,13.34a23.22,23.22,0,0,1-.43,2.5,5.36,5.36,0,0,0,2.66,3.33v-7h-5.78v-1.87h14V230h-6.1v2.5h4.85v1.82h-4.85v3.34a14.82,14.82,0,0,0,2,.12c.7,0,3.82,0,4.75,0a6.54,6.54,0,0,0-.64,2h-4.2c-3.34,0-5.86-.62-7.45-3.82a10.81,10.81,0,0,1-2.73,4.13,16.18,16.18,0,0,0-1.68-1.34c2.06-1.66,3.12-4.37,3.48-7.8Zm9.17-12.6v8.07H466.77v-8.07Zm-9.53,3.26h7.37v-1.6h-7.37Zm0,3.13h7.37v-1.61h-7.37Z" transform="translate(-64 -59.9)"/><path d="M494.34,218.85v8.69h-6.67v12.62h-2.23V218.85Zm-2.13,1.77h-4.54v1.71h4.54Zm-4.54,3.29v1.85h4.54v-1.85Zm12.17,5.57v7.27h-7.06v1.39H490.7v-8.66Zm-7.06,5.38h4.92v-3.51h-4.92Zm12.63-16v18.43c0,1.37-.29,2.06-1.18,2.45a13.69,13.69,0,0,1-4.48.41,8.83,8.83,0,0,0-.8-2.33c1.51.07,3.1.05,3.58.05s.6-.17.6-.6v-9.72h-6.84v-8.69h9.12Zm-2.28,1.75h-4.68v1.73h4.68Zm-4.68,3.31v1.87h4.68v-1.87Z" transform="translate(-64 -59.9)"/><path d="M516.54,236.06v-3.72H512v-2h4.58V228h2.14v2.37h4.61v2h-4.61v3.36l4.85-.89.14,2c-4.27.82-8.83,1.68-12,2.26l-.5-2.12C512.61,236.73,514.48,236.42,516.54,236.06Zm-4.68-10.4a2.64,2.64,0,0,0,1.16-1,25.87,25.87,0,0,0,1.8-3.27h-3.46v-2h12.43v2h-6.48a26.32,26.32,0,0,1-2.45,4l5.33-.38a26.74,26.74,0,0,0-1.58-2.24l1.63-.95a32,32,0,0,1,3.53,5.16L522,228.09c-.19-.39-.43-.87-.72-1.35-7.15.63-8.09.72-8.74,1A21.62,21.62,0,0,0,511.86,225.66Zm15.2-5.66v14.57H525V220Zm4.77-1.8V237c0,1.29-.26,1.94-1.05,2.3a11.31,11.31,0,0,1-4,.41,8.27,8.27,0,0,0-.82-2.21c1.37.05,2.67.05,3.1.05s.53-.14.53-.55V218.2Z" transform="translate(-64 -59.9)"/><path d="M542.51,218.29c-.17.6-.33,1.18-.53,1.76h2.55l.31-.1,1.32.82a28.47,28.47,0,0,1-1.44,3.21h2.88v1.75a5.83,5.83,0,0,0,3.55-4.77h-3v-1.87h10.56s0,.5,0,.76c-.17,3.94-.38,5.55-.89,6.15a1.89,1.89,0,0,1-1.39.67,17.11,17.11,0,0,1-2.47,0,4.75,4.75,0,0,0-.51-1.88,17.32,17.32,0,0,0,2,.1.7.7,0,0,0,.67-.22c.24-.31.41-1.29.55-3.74h-3.38c-.48,2.81-1.58,5.06-4.58,6.41a6.08,6.08,0,0,0-1.06-1.4v11.84c0,1-.19,1.61-.86,1.94a8.38,8.38,0,0,1-3.24.36,7.77,7.77,0,0,0-.65-1.92c1.1,0,2.11,0,2.45,0s.41-.12.41-.44v-4h-5.38a14.57,14.57,0,0,1-1.85,6.36,8,8,0,0,0-1.61-1c1.63-2.55,1.78-6.12,1.78-8.84V226.5l-.19.24a17,17,0,0,0-1.68-1.34,17.74,17.74,0,0,0,3.69-7.56Zm.27,5.69a23,23,0,0,0,.88-2.18h-2.35a19.9,19.9,0,0,1-1,2.18Zm-2.28,5.67v.72l0,1.73h1.85v-2.45Zm0-3.94V228h1.82v-2.28Zm3.4,2.28h1.81v-2.28H543.9Zm0,4.11h1.81v-2.45H543.9Zm7.66-4.64c-.12.6-.26,1.2-.43,1.78h1.68v-2.33H555v2.33h3.94v1.94H555v2.6h4.39v2H555V240h-2.16v-4.27H548v-2h4.8v-2.6h-2.38a11.26,11.26,0,0,1-1.13,2.14,9.87,9.87,0,0,0-1.7-.91,14.09,14.09,0,0,0,2.07-5.31Z" transform="translate(-64 -59.9)"/><path d="M566.9,231c0,.91-.08,1.82-.17,2.71a6.21,6.21,0,0,0,1.53,2.16v-6h-4.63v-1.7h10.83v1.7h-4.25v2.31H574v1.7h-3.82V237a20.32,20.32,0,0,0,6.46.77c1.31,0,7.53,0,9.21-.07a5.83,5.83,0,0,0-.77,1.89h-8.44c-4.93,0-8.24-.5-10.3-3.5a9.17,9.17,0,0,1-1.78,4.1,7.58,7.58,0,0,0-1.39-1.51c1.42-1.7,1.75-4.78,1.82-7.7Zm6.28-12.17v7.7H564.9v-7.7Zm-6.26,3.07h4.15v-1.51h-4.15Zm0,3.05h4.15v-1.54h-4.15Zm12.12,8.9a15.25,15.25,0,0,1-4.27,3.55,11.53,11.53,0,0,0-1.49-1.36,11.55,11.55,0,0,0,3.86-2.76Zm-.82-11.66c.17-.51.34-1.06.49-1.59h-4.4V219h11v1.65h-4.54l-.64,1.59h4.32V233h-9.29V222.21Zm-1,3.09h5.13v-1.49h-5.13Zm0,3h5.13v-1.49h-5.13Zm0,3h5.13v-1.52h-5.13Zm4.85,1.82a19.62,19.62,0,0,1,3.67,3.07l-1.63,1a20.19,20.19,0,0,0-3.6-3.22Z" transform="translate(-64 -59.9)"/><path d="M592.34,232.34c1.84-.7,2.92-1.8,3-3.24l-.33,0a1.92,1.92,0,1,1,0-3.84c1.51,0,2.31,1.18,2.31,3A5.85,5.85,0,0,1,593,233.9Z" transform="translate(-64 -59.9)"/><path d="M604.72,227.25a3.58,3.58,0,0,0,1.58-1.54,34.69,34.69,0,0,0,2.38-4.44h-3.89v-2h4.66l.77-.31,1.41.91a52.81,52.81,0,0,1-3.31,6.26h1.54l.38,0,1.3.28a30.22,30.22,0,0,1-2,8.57c2.28,2.11,5.48,2.59,9.32,2.62,1.15,0,6.24,0,7.68,0a6.55,6.55,0,0,0-.84,2.09h-6.89c-4.27,0-7.66-.55-10.18-2.81a11.15,11.15,0,0,1-2.88,3.34,7.71,7.71,0,0,0-1.63-1.49,10.22,10.22,0,0,0,3-3.51,15.34,15.34,0,0,1-2.19-4.7l1.68-.6a14.2,14.2,0,0,0,1.42,3.29,23.82,23.82,0,0,0,1.2-5h-2.57c-.45.25-1.1.61-1.1.89A11.28,11.28,0,0,0,604.72,227.25Zm12.34-7.47v-1.92h2.13v1.92h5.38v3.27h1.49v1.75h-1.49v3.33h-5.38v1.57H625v1.65h-5.79v1.59h6.63v1.77h-6.63v2h-2.13v-2h-5.62v-1.77h5.62v-1.59h-4.64V229.7h4.64v-1.57h-4.47v-1.75h4.47V224.8h-5.74v-1.75h5.74v-1.49h-4.3v-1.78Zm5.47,3.27v-1.49h-3.34v1.49Zm-3.34,3.33h3.34V224.8h-3.34Z" transform="translate(-64 -59.9)"/><path d="M648.64,226.12a98.5,98.5,0,0,1-3.48,10.75h7.42v2.31H631v-2.31h11.74a70.26,70.26,0,0,0,3.38-11.23Zm3-3.82v2.28H632V222.3Zm-14.13,3.32a83.79,83.79,0,0,1,2.3,9.81l-2.42.6a83.27,83.27,0,0,0-2.16-9.89Zm4.58-8a31.22,31.22,0,0,1,1.27,3.84l-2.35.67a27.68,27.68,0,0,0-1.15-3.93Z" transform="translate(-64 -59.9)"/><path d="M439.26,262.91a25.94,25.94,0,0,1-5.35,5.09,13.76,13.76,0,0,0-2-1.49,18.11,18.11,0,0,0,5-4.41Zm8.86-7.27A42.09,42.09,0,0,1,453,261L451,262.19c-.32-.48-.77-1.06-1.28-1.7l-5.88.45v5.43c0,1.17-.24,1.8-1.15,2.16a12.48,12.48,0,0,1-3.94.36,8.78,8.78,0,0,0-.84-2.23c1.35.07,2.74.07,3.15,0s.48-.12.48-.38v-5.19c-6.07.49-7.08.63-7.85.92a19.85,19.85,0,0,0-.67-2.11,12.73,12.73,0,0,0,3.31-1.18c.86-.38,2.64-1.27,4.68-2.45-4.75.29-5.57.41-6.12.63a15.08,15.08,0,0,0-.67-2.14,5.67,5.67,0,0,0,2-.77,31.27,31.27,0,0,0,4.78-3.14c-2.62.6-5.33,1.08-7.9,1.49a7.66,7.66,0,0,0-.67-1.9c5.49-.89,11.64-2.28,15.19-3.89l1.68,1.8a44.8,44.8,0,0,1-7,2.18l1.44.92a38.06,38.06,0,0,1-4.66,3l5.17-.25c.91-.62,1.82-1.27,2.66-1.91l1.7,1.48a57.13,57.13,0,0,1-9.17,5.4l8.69-.57c-.64-.75-1.32-1.47-1.94-2.09Zm-.62,6.19a41.67,41.67,0,0,1,5.47,4.61l-2,1.34a38.15,38.15,0,0,0-5.33-4.75Z" transform="translate(-64 -59.9)"/><path d="M460.46,262.58a32,32,0,0,1-1.13,5.88,12.33,12.33,0,0,0-1.73-.65,24,24,0,0,0,1.06-5.52Zm-2.69-3.29c.57-.12,1.1-.72,1.85-1.61.33-.39,1-1.22,1.75-2.33a11.07,11.07,0,0,0-3.05.53c-.12-.46-.48-1.49-.7-2,.44-.12.84-.6,1.32-1.32a29.78,29.78,0,0,0,3.08-6l2,.86a35.8,35.8,0,0,1-3.6,6.29l2.08-.14a36.31,36.31,0,0,0,1.9-3.53l1.9,1.15a45.82,45.82,0,0,1-5.28,7.71l3.26-.51c-.24-.69-.53-1.41-.82-2.06l1.59-.6a22.17,22.17,0,0,1,1.68,4.8l-1.68.69a10.47,10.47,0,0,0-.27-1.17c-5.08.89-5.85,1.08-6.33,1.37A14.09,14.09,0,0,0,457.77,259.29Zm5.18,2.83a45.88,45.88,0,0,1,.65,5l-1.75.43a42.6,42.6,0,0,0-.55-5.09Zm2.55-.65a34.36,34.36,0,0,1,1.29,4.15l-1.63.6A34.79,34.79,0,0,0,464,262Zm1.15-4.92c.53-.14,1-.77,1.68-1.75a30,30,0,0,0,1.77-3.1h-3.24v-2.11h4.28c.43-1,.84-2,1.2-3l2.47.68c-.34.76-.67,1.53-1.06,2.3h6v2.11h-7.06a46.54,46.54,0,0,1-2.71,4.44l6.17-.57c-.46-.82-.94-1.64-1.39-2.33l1.85-.82a37.39,37.39,0,0,1,3.33,5.88l-2,1a19.83,19.83,0,0,0-.82-1.84l-1.46.16v8.14c0,.67.07.79.55.79h1.37c.48,0,.58-.45.62-3.24a6.36,6.36,0,0,0,1.95.87c-.19,3.43-.72,4.39-2.33,4.39h-1.94c-1.9,0-2.36-.67-2.36-2.81v-7.9l-1.87.22c-.19,5.47-.86,8.95-5,11a6.22,6.22,0,0,0-1.39-1.77c3.52-1.61,4.08-4.37,4.22-9a9.57,9.57,0,0,0-2.06.46A16.38,16.38,0,0,0,466.65,256.55Z" transform="translate(-64 -59.9)"/><path d="M492.62,247.45a38.14,38.14,0,0,1-2.4,4.61v16.88h-2.16V255.21a30.83,30.83,0,0,1-2.86,3.17,14.61,14.61,0,0,0-1.25-2.31,26.27,26.27,0,0,0,6.55-9.31Zm4.46-.38v6.39h8.52v2.18h-8.52v8.93c0,1.37.22,1.63,1.44,1.63h4c1.32,0,1.51-1,1.72-5.09a6.23,6.23,0,0,0,2,1c-.31,4.56-.88,6.17-3.62,6.17h-4.32c-2.67,0-3.43-.82-3.43-3.72V247.07Z" transform="translate(-64 -59.9)"/><path d="M511.89,253.5a19.1,19.1,0,0,1,4.53,2.43l-1.27,1.89a19.8,19.8,0,0,0-4.46-2.61Zm4.2,5.93,1.65,1.51c-1.27,2.52-2.88,5.43-4.32,7.71l-1.92-1.54A70.06,70.06,0,0,0,516.09,259.43Zm-2.81-12.5a16.78,16.78,0,0,1,4.58,2.49l-1.32,1.87a18.3,18.3,0,0,0-4.51-2.71Zm12.05-.24v3.74H531v7.13h1.9v2.14H525a12.34,12.34,0,0,1-6.77,9.26,10,10,0,0,0-1.84-1.63c4-2.07,5.61-4.73,6.26-7.63h-5.42v-2.14H523c.07-.86.09-1.73.09-2.62v-2.37h-4.61v-2.14h4.61v-3.74Zm3.43,5.88h-3.43v2.37c0,.87,0,1.76-.07,2.62h3.5Zm-.93,7.51c1.72,2.4,4.08,5.74,5.2,7.7l-2,1.16c-1-2-3.31-5.4-5-7.9Z" transform="translate(-64 -59.9)"/><path d="M542.9,250h-1.76a18.75,18.75,0,0,1-2.47,3.15,12.65,12.65,0,0,0-1.56-1.54,13.83,13.83,0,0,0,3.58-5.18l2,.6-.56,1.2h5.79V250h-4.06a18.6,18.6,0,0,1,1.94,1.92l-1.46,1.3a21.93,21.93,0,0,0-2.35-2.47Zm10.63,0h-2.38a12.73,12.73,0,0,1-1.7,2.11h.09v1.42h9v2h-9v1.56h7.71v4.3c0,1-.22,1.49-1,1.78a9.35,9.35,0,0,1-3.12.31,8.33,8.33,0,0,0-.74-1.78c.88.05,1.84,0,2.11,0s.38-.1.38-.34v-2.35h-5.38v2.18a20.23,20.23,0,0,0,9.94,4.87,9.77,9.77,0,0,0-1.44,2,21.43,21.43,0,0,1-8.5-4.47v5.31h-2.42v-5.36a20.83,20.83,0,0,1-8.57,4.64,8.83,8.83,0,0,0-1.41-1.9c4-.86,7.87-2.86,10-5.38v-1.89h-5.35v4.46h-2.4V257.1h7.75v-1.56h-9.38v-2h9.38v-1.42h2a11.11,11.11,0,0,0-1.51-1.17,10.52,10.52,0,0,0,3-4.49l2.07.5a13.22,13.22,0,0,1-.53,1.28h7V250h-4.8a17.06,17.06,0,0,1,2.11,1.87L555,253.21a18.32,18.32,0,0,0-2.48-2.32Z" transform="translate(-64 -59.9)"/><path d="M564.62,253.5A18.37,18.37,0,0,1,569.1,256l-1.27,1.9a19.48,19.48,0,0,0-4.41-2.66Zm3.88,5.93,1.68,1.51c-1.27,2.52-2.88,5.43-4.32,7.71l-1.92-1.54A68.72,68.72,0,0,0,568.5,259.43ZM565.74,247a18.12,18.12,0,0,1,4.25,2.81l-1.37,1.8a18.58,18.58,0,0,0-4.15-3Zm8.6,11.18v2.45c0,2.67-.39,5.88-3.51,8.26a7.66,7.66,0,0,0-1.61-1.49c2.76-2,3-4.68,3-6.84v-2.38Zm-3.92-2.73a4.1,4.1,0,0,0,1.83-1.54,26.77,26.77,0,0,0,1.65-2.13h-3.67v-2h5a27.79,27.79,0,0,0,1.73-3.05l2.23.86c-.43.75-.86,1.47-1.34,2.19h7.37v2H576.5c-.89,1.2-1.78,2.32-2.67,3.33l7.35-.41-1.47-1.84,1.73-1c1.35,1.59,3.22,3.8,4.13,5.14l-1.85,1.17c-.29-.45-.69-1-1.15-1.65-9.43.62-10.61.72-11.4,1A17.65,17.65,0,0,0,570.42,255.4Zm8,2.9v9.6h-2v-9.6Zm4.3-.17v7.57c0,.72,0,1,.36,1h1.2a4.13,4.13,0,0,0,1.11-.15c0,.55.09,1.3.16,1.78a5,5,0,0,1-1.24.12h-1.42c-1.9,0-2.28-.79-2.28-2.74v-7.54Z" transform="translate(-64 -59.9)"/><path d="M599.06,248.7a25.32,25.32,0,0,1-3.1,1v3.75h2.83v2.13H596v1.13c.65.55,2.71,2.69,3.19,3.27l-1.32,1.77a32.33,32.33,0,0,0-1.87-2.78v10h-2.21v-9.77a24.39,24.39,0,0,1-3.09,5.62,12.14,12.14,0,0,0-1.11-2.11,23.35,23.35,0,0,0,3.89-7.11H590v-2.13h3.72v-3.27c-1.1.22-2.23.39-3.26.53a8.43,8.43,0,0,0-.65-1.75,33.78,33.78,0,0,0,7.66-2Zm12.17,9.36a39.65,39.65,0,0,1-4.9.87v2.71H611v1.94h-4.63v2.79H612v2H598.31v-2h5.76v-2.79h-4.51v-1.94h4.51v-2.47c-1.53.14-3.07.24-4.51.31a6.58,6.58,0,0,0-.55-1.75,63.73,63.73,0,0,0,10.8-1.37Zm-.46-10.27v7.94h-11v-7.94Zm-8.88,6h6.67v-4.06h-6.67Z" transform="translate(-64 -59.9)"/><path d="M763.91,236.63v-7.77h-2V227h21.34v1.83H772v9.43a14.17,14.17,0,0,0,4.1-2,14.85,14.85,0,0,1-2.52-4l1.32-.38h-2.3V230.1h8.2l.39-.07,1.39.55a13.89,13.89,0,0,1-3.38,5.74,13.68,13.68,0,0,0,4.53,2,8.13,8.13,0,0,0-1.34,1.75,13.51,13.51,0,0,1-4.75-2.42,16.73,16.73,0,0,1-4.49,2.4,7.55,7.55,0,0,0-1.15-1.71v1.76h-2.19v-2.28c-2.88.36-5.76.64-7.92.88l-.24-1.94Zm17-17.93v7.54h-2.3v-5.91H766.67v5.91h-2.21V218.7ZM766,228.86v1.29h3.81v-1.29Zm0,2.92v1.35h3.81v-1.35Zm0,3v1.68l3.81-.38v-1.3Zm11.64-13.2V223h-10v-1.41Zm0,2.66v1.49h-10v-1.49Zm0,10.76a11.48,11.48,0,0,0,2.23-3.1h-4.34A10.46,10.46,0,0,0,777.59,235Z" transform="translate(-64 -59.9)"/><path d="M794.17,224.2c-.79,3.58-2.16,8-4.27,10.63a15.43,15.43,0,0,0-2.19-1.2c2-2.49,3.34-6.67,3.89-9.86Zm6.2-6v19c0,1.51-.39,2.16-1.35,2.54a14.93,14.93,0,0,1-4.82.44,10.24,10.24,0,0,0-.94-2.38c1.7.07,3.46.07,4,.05s.67-.17.67-.65v-19Zm5.51,5.37a40.87,40.87,0,0,1,4.69,10.71l-2.48,1a40.37,40.37,0,0,0-4.41-10.87Z" transform="translate(-64 -59.9)"/><path d="M822.71,218.65a36.09,36.09,0,0,1-2.4,4.61v16.88h-2.16V226.41a29.72,29.72,0,0,1-2.86,3.17,13.84,13.84,0,0,0-1.25-2.31A26.32,26.32,0,0,0,820.6,218Zm4.46-.38v6.38h8.52v2.19h-8.52v8.93c0,1.37.22,1.63,1.44,1.63h4c1.32,0,1.51-1,1.73-5.09a6.14,6.14,0,0,0,2,1c-.32,4.56-.89,6.17-3.63,6.17h-4.32c-2.66,0-3.43-.82-3.43-3.72V218.27Z" transform="translate(-64 -59.9)"/><path d="M842,224.7a19.18,19.18,0,0,1,4.54,2.43L845.24,229a19.8,19.8,0,0,0-4.46-2.61Zm4.2,5.93,1.66,1.51c-1.28,2.52-2.88,5.43-4.32,7.71l-1.92-1.54A71.76,71.76,0,0,0,846.18,230.63Zm-2.81-12.5a16.85,16.85,0,0,1,4.59,2.49l-1.32,1.87a18.56,18.56,0,0,0-4.52-2.71Zm12-.24v3.74h5.67v7.13H863v2.14h-7.9a12.35,12.35,0,0,1-6.76,9.26,10.38,10.38,0,0,0-1.85-1.63c4-2.07,5.61-4.73,6.26-7.63h-5.42v-2.14h5.76c.07-.87.1-1.73.1-2.62v-2.37h-4.61v-2.14h4.61v-3.74Zm3.43,5.88h-3.43v2.37c0,.87,0,1.75-.07,2.62h3.5Zm-.93,7.51c1.73,2.4,4.08,5.74,5.21,7.7l-2,1.16c-1.06-2-3.32-5.4-5.05-7.9Z" transform="translate(-64 -59.9)"/><path d="M873,221.22h-1.75a19.31,19.31,0,0,1-2.48,3.15,12.65,12.65,0,0,0-1.56-1.54,13.75,13.75,0,0,0,3.58-5.18l2,.6-.56,1.2H878v1.77H874a21,21,0,0,1,1.95,1.92l-1.47,1.3A21.06,21.06,0,0,0,872.1,222Zm10.63,0h-2.37a12.77,12.77,0,0,1-1.71,2.11h.1v1.42h9v2h-9v1.56h7.7v4.3c0,1-.22,1.49-1,1.78a9.35,9.35,0,0,1-3.12.31,8.33,8.33,0,0,0-.74-1.78c.89.05,1.85,0,2.11,0s.38-.1.38-.34v-2.35h-5.37v2.18a20.24,20.24,0,0,0,9.93,4.87,10.16,10.16,0,0,0-1.44,2,21.31,21.31,0,0,1-8.49-4.47v5.31h-2.43v-5.36a20.77,20.77,0,0,1-8.57,4.64,8.51,8.51,0,0,0-1.41-1.9c4-.86,7.87-2.86,10-5.38v-1.89h-5.35v4.46h-2.4V228.3h7.75v-1.56h-9.38v-2h9.38v-1.42h2a11.11,11.11,0,0,0-1.51-1.17,10.52,10.52,0,0,0,3-4.49l2.07.5a13.22,13.22,0,0,1-.53,1.28h7v1.77h-4.8a17.06,17.06,0,0,1,2.11,1.87L885,224.42a17.73,17.73,0,0,0-2.48-2.33Z" transform="translate(-64 -59.9)"/><path d="M913,219c-.07,9.22-.07,18.7,1.21,18.7.26,0,.4-1.56.45-3.6a8.94,8.94,0,0,0,1.3,1.75c-.22,3-.65,4.28-2,4.3-3.15,0-3.15-8.62-3.2-19h-12.5V227c0,4-.41,9.58-3.1,13.18a8,8,0,0,0-1.85-1.25c2.55-3.38,2.79-8.23,2.79-11.93v-8Zm-3.26,3.48v1.83h-4.37v2h4.11v6.77h-4.11V236l2.52-.16a17.26,17.26,0,0,0-1-1.8l1.73-.56a18.5,18.5,0,0,1,2.59,5.31l-1.85.65a12.62,12.62,0,0,0-.57-1.76l-10.52.8-.14-2,5.28-.32v-3h-4v-6.77h4v-2H899.2v-1.83Zm-8.57,8.86h2.21v-3.24h-2.21Zm4.2,0h2.26v-3.24h-2.26Z" transform="translate(-64 -59.9)"/><path d="M925.76,218.82l.32-.09,1.41.84c-.6,2-1.37,4.41-2,6.31a8.28,8.28,0,0,1,1.78,5.14c0,1.41-.27,2.44-.94,2.95a2.19,2.19,0,0,1-1.22.48,8,8,0,0,1-1.49.05,4.6,4.6,0,0,0-.5-2,9.2,9.2,0,0,0,1.15,0,1.29,1.29,0,0,0,.67-.21,2.22,2.22,0,0,0,.38-1.59,7.28,7.28,0,0,0-1.7-4.65c.53-1.59,1.06-3.65,1.46-5.24h-2.35v19.2h-1.92V218.82ZM932,233.3a12.74,12.74,0,0,1-.62,1.63,15.08,15.08,0,0,1,2.54,1.94l-1.18,1.51a14.34,14.34,0,0,0-2.2-1.89,12.34,12.34,0,0,1-3.53,3.72,12.44,12.44,0,0,0-1.51-1.47,10.1,10.1,0,0,0,4.51-5.85Zm3.7-14.93-.51.76a23,23,0,0,0,7.08,3.94,8.5,8.5,0,0,0-.93,2.11,28.55,28.55,0,0,1-3.53-1.85V225h-7.13v-1.4a28,28,0,0,1-2.52,1.59,9.81,9.81,0,0,0-1.49-1.54,18,18,0,0,0,6.84-6Zm-2.09,8.18v5.93H928v-5.93Zm-3.91,4.32h2.16v-2.74h-2.16Zm8-7.61A24.9,24.9,0,0,1,934,220.6a20.08,20.08,0,0,1-2.86,2.66Zm1.05,9.89a13,13,0,0,1-.57,2,30.52,30.52,0,0,1,4,3.05l-1.36,1.56a30.19,30.19,0,0,0-3.41-2.88,10.19,10.19,0,0,1-2.86,3.24A10.06,10.06,0,0,0,933,238.7a8.73,8.73,0,0,0,3.65-5.84Zm1.9-6.6v5.93h-5.71v-5.93Zm-4,4.32h2.26v-2.74h-2.26Z" transform="translate(-64 -59.9)"/><path d="M948.83,232.34c1.85-.7,2.93-1.8,3-3.24l-.34,0a1.92,1.92,0,1,1,0-3.84c1.52,0,2.31,1.18,2.31,3a5.85,5.85,0,0,1-4.42,5.62Z" transform="translate(-64 -59.9)"/><path d="M975.88,227.2a14.74,14.74,0,0,1,2.66,2.52l-1.17.65h5.16v2.13h-9c1.58,3,4.59,4.78,9.29,5.36a8.43,8.43,0,0,0-1.46,2.23c-4.73-.84-7.69-2.81-9.53-6.29-1.32,3-4,5.16-9.6,6.38A7.43,7.43,0,0,0,961,238.1c5.37-1.06,7.68-3,8.73-5.6h-8.52v-2.13h9.13a27.92,27.92,0,0,0,.4-3.39h2.5c-.1,1.2-.22,2.33-.39,3.39h3.77a16.64,16.64,0,0,0-2.35-2.31Zm-3.32-9.58a23,23,0,0,1,.84,2.21h8.89V224h-2.38v-2.11h-4.27v2.33c0,.58.09.77.69.77h3.34a9.93,9.93,0,0,0,2-.15c.07.58.12,1.37.19,1.9a8.14,8.14,0,0,1-2,.17h-3.65c-2.23,0-2.76-.77-2.76-2.72v-2.3h-3.24c-.34,3.86-1.68,5.74-7.78,6.58a5.86,5.86,0,0,0-1.1-1.9c5.26-.6,6.24-1.77,6.5-4.68H963.9v2.33h-2.26v-4.37h9l-.53-1.63Z" transform="translate(-64 -59.9)"/><path d="M770,247.84v2.06h-3.22a38.66,38.66,0,0,1-1.46,5.38h4.15V266h-4.25v1.87h-1.94v-8.18a13.89,13.89,0,0,1-1.18,1.65,11.27,11.27,0,0,0-.91-2.56,21.66,21.66,0,0,0,3.38-8.84h-2.8v-2.06Zm-4.78,16.1h2.28v-6.67h-2.28ZM776,250.29v-3.63h2v3.63h3.6l.36-.08,1.42.32a33.55,33.55,0,0,1-1.37,4.94l-1.75-.43a27.64,27.64,0,0,0,.72-2.76h-3V256h3l.39-.07,1.3.48a19.15,19.15,0,0,1-3.7,7.89,14.15,14.15,0,0,0,4.75,2.76,9,9,0,0,0-1.44,1.83,16,16,0,0,1-4.75-3.05,16.48,16.48,0,0,1-4.56,3.05,8.1,8.1,0,0,0-1.25-1.73,14,14,0,0,0,4.42-2.81,20.1,20.1,0,0,1-3.12-5.35c-.2,3.29-.77,7.18-2.57,9.91a7.16,7.16,0,0,0-1.71-1.1c2.12-3.27,2.33-7.87,2.33-11.23v-6.29Zm-2.86,2V256H776v-3.72Zm1.59,5.69a16.55,16.55,0,0,0,2.88,4.87,15.05,15.05,0,0,0,2.64-4.87Z" transform="translate(-64 -59.9)"/><path d="M809.56,248.05v2.24H800v2.61h8.77v13.59c0,1.13-.27,1.7-1,2a10.8,10.8,0,0,1-3.74.36,7.88,7.88,0,0,0-.72-2c1.18,0,2.42,0,2.78,0s.48-.12.48-.46V255H800v13.83h-2.18v-4.25a5.52,5.52,0,0,0-1,.82,9.65,9.65,0,0,1-1.76-3.75,10,10,0,0,1-2.11,3.8,8.46,8.46,0,0,0-1.22-.92c1.51-1.48,2.28-3.76,2.61-6.45H793v-1.56h2.95c0,2.52.17,5.33,1.9,7.61V255h-6.19v13.88h-2.16v-16h8.35v-2.61h-9.19v-2.24Zm-5.23,8.48c0,2.66.16,5.57,2.18,7.87a6.9,6.9,0,0,0-1.3.91,8.91,8.91,0,0,1-1.77-3.77,10.69,10.69,0,0,1-2,3.75,7.11,7.11,0,0,0-1.23-.94,11.07,11.07,0,0,0,2.52-6.26h-1.41v-1.56Z" transform="translate(-64 -59.9)"/><path d="M830.1,247.17a37.57,37.57,0,0,1-1.39,4h7.66v2h-3V256h2.78v2h-2.78v2.85h2.78v1.95h-2.78v2.9h3.17v2.09h-8v1.13h-2.06V255.57c-.27.38-.51.76-.77,1.1a10.78,10.78,0,0,0-1.06-1v2.18H821v1.2h3.82v1.66H821a10.1,10.1,0,0,1-.07,1.22h4.53v1.73h-4.87l-.07.22a29.11,29.11,0,0,1,4.2,3l-1.2,1.53a26.77,26.77,0,0,0-3.74-2.9,9.18,9.18,0,0,1-4.08,3.41,7,7,0,0,0-1.42-1.47,7.21,7.21,0,0,0,4.06-3.74H814.4V262h4.4a7.55,7.55,0,0,0,.09-1.22H815.2v-1.66h3.69v-1.2h-3.74v-4.73H819v-.89h-2.44v-2.44h-2V248.1h2v-1.39h2v1.39h3v-1.41h2.06v1.41h1.85v1.71h-1.85v2.44h-2.71v.89h3.84v1.23a26.09,26.09,0,0,0,3.39-7.71Zm-13.2,9.21H819v-1.75H816.9Zm1.61-6.57v1h3v-1Zm2.3,6.57h2v-1.75h-2ZM831.3,256v-2.78h-2.76V256Zm-2.76,4.8h2.76V258h-2.76Zm0,4.85h2.76v-2.9h-2.76Zm4-18.72a14.69,14.69,0,0,1,1.56,3.29l-2,.74a15.23,15.23,0,0,0-1.49-3.36Z" transform="translate(-64 -59.9)"/><path d="M862,247.74V269h-2.35V267.9H844V269h-2.28V247.74Zm-2.35,18.05V249.85H844v15.94Zm-6.77-15.05v3.19h5.66v2h-5.33A74.69,74.69,0,0,1,859,261.5L857.63,263c-1.06-1.25-3-3.19-4.75-4.9v6.7h-2.12v-7.2a19.11,19.11,0,0,1-4.94,5.52,9.34,9.34,0,0,0-1.44-1.63,17.39,17.39,0,0,0,5.33-5.57h-4.44v-2h5.49v-3.19Z" transform="translate(-64 -59.9)"/><path d="M869.84,262.62v-8h-2.52v-2.14h2.52V247h2.21v5.52h2.21v2.14h-2.21v7.22l2.4-.89.46,2.09c-2.5,1-5.14,2.07-7.23,2.88l-.74-2.33C867.76,263.34,868.76,263,869.84,262.62Zm17.53-7v7.08h-2.74v3.4c0,.36,0,.56.17.63a.9.9,0,0,0,.55.12h.94a3.05,3.05,0,0,0,.69-.07.68.68,0,0,0,.36-.51c0-.31.07-1,.1-1.94a5.54,5.54,0,0,0,1.77.93,8.61,8.61,0,0,1-.31,2.31,1.52,1.52,0,0,1-1,.84,4.82,4.82,0,0,1-1.46.19h-1.61a2.81,2.81,0,0,1-1.73-.48c-.43-.34-.62-.79-.62-2.14V262.7h-2c-.41,3.33-1.63,5.23-6.1,6.31a5.49,5.49,0,0,0-1.17-1.75c3.84-.77,4.8-2.07,5.13-4.56h-2.28v-7.08Zm-1.2-4.88-.94,1.92h3.36v1.92H875.05v-1.92h3.19a12.77,12.77,0,0,0-.64-2l1.85-.38a13.94,13.94,0,0,1,.81,2.28l-.38.09h3.33a18.72,18.72,0,0,0,.87-2.33Zm-3.82-4.25a16,16,0,0,1,.77,1.8H888v1.85H875.77v-1.85h5a13.37,13.37,0,0,0-.53-1.39Zm-4.15,12h7v-1.32h-7Zm0,2.73h7v-1.34h-7Z" transform="translate(-64 -59.9)"/></svg>