<?xml version="1.0" encoding="utf-8"?>
<!-- Generator: Adobe Illustrator 26.3.1, SVG Export Plug-In . SVG Version: 6.00 Build 0)  -->
<svg version="1.1" id="圖層_1" xmlns="http://www.w3.org/2000/svg" xmlns:xlink="http://www.w3.org/1999/xlink" x="0px" y="0px"
	 width="186.1px" height="18.9px" viewBox="0 0 186.1 18.9" style="enable-background:new 0 0 186.1 18.9;" xml:space="preserve">
<style type="text/css">
	.st0{fill:#FFFFFF;}
	.st1{font-family:'CaslonBT-Bold';}
	.st2{font-size:12.2293px;}
</style>
<g>
	<path class="st0" d="M17.2,15.1c0.9,0.4,1.1,0.7,1,1.3c-0.2,1.3-1.4,1.8-6,1.8H9.7c-2.7,0-3.7-0.4-3.3-2.7L7,12l-6.9,0.8L0,12.2
		l7.2-0.9l0.6-3.5L2.1,8.5L2,8l5.9-0.7L8.5,4C6.3,4.3,4.1,4.5,2.1,4.6V4.3c4.8-0.9,10.8-2.8,14-4.2l2.3,2.5c-0.3,0.2-0.8,0.3-1.4,0
		c-1.5,0.4-3.3,0.7-5.3,1L11.6,4L11,6.9l2.3-0.3l1.8-2.2c0,0,1.8,1.1,2.9,1.9c-0.1,0.2-0.3,0.4-0.6,0.4L11,7.5L10.3,11l4.1-0.5
		l1.8-2.2c0,0,1.8,1.1,2.9,1.9c-0.1,0.2-0.3,0.4-0.6,0.4l-8.3,1l-0.5,3.1c-0.1,0.5,0.2,0.7,0.9,0.7H13c0.6,0,1.3,0,1.7,0
		s0.6-0.1,0.9-0.4c0.4-0.5,1-1.5,1.9-3h0.2L17.2,15.1z"/>
	<path class="st0" d="M30.7,2.5c-1.4,2.7-3.8,7.6-4.3,8.8c-0.3,0.7-0.6,1.5-0.7,2.1c-0.2,1.2,0.7,1.8,0.3,3.6
		c-0.2,1.1-1.1,1.8-2.3,1.8c-0.5,0-1.1-0.2-1.2-1c0.8-2.1,1.1-4.1,0.6-4.4c-0.3-0.2-0.6-0.3-1-0.3l0.1-0.4h0.9c0.3,0,0.4,0,0.7-0.4
		c0.7-0.8,0.7-0.8,6.6-9.8H30.7z M22.9,4.8c6,0.1,3.2,4.7,1.1,3.2c-0.1-1.1-0.7-2.3-1.2-3.1L22.9,4.8z M25.6,0.4
		c6.1,0.3,3.2,5,0.9,3.4c-0.1-1.2-0.6-2.4-1.1-3.3L25.6,0.4z M36.8,3.5c7.3,1.6,3.8,7.5,1.3,5.3c0-0.5,0-1-0.1-1.6
		c-1.9,0.6-4.8,1.3-8.1,2.1c-0.1,0.1-0.3,0.3-0.4,0.4l2.5,1h4.4L38,9.2l2,1.8c-0.2,0.2-0.4,0.3-0.9,0.4L37.9,18
		c0,0.1-0.9,0.6-2.4,0.6H35l0.3-1.7h-4.7l-0.2,1.3c0,0.2-0.9,0.6-2.3,0.6h-0.5l1.6-9c-0.1,0-0.2,0.1-0.3,0.1l-0.3-3.2
		c0,0,0.6-0.1,0.9-0.3c1.6-1,4.2-4.4,5-6.4l3.8,1.3c-0.1,0.2-0.4,0.4-0.8,0.4c-1.6,1.7-4.3,3.7-6.6,5c1.8,0,4.3,0,7,0
		c-0.3-1.1-0.7-2.2-1.3-3L36.8,3.5z M31.7,11.2l-0.9,5.1h4.7l0.9-5.1C36.4,11.2,31.7,11.2,31.7,11.2z"/>
	<path class="st0" d="M63.8,2.1c-0.2,0.2-0.5,0.3-0.9,0.4l-2.7,15.3c-0.1,0.2-1.4,0.8-2.4,0.8h-0.4l0.3-1.6H46l-0.1,0.7
		c-0.1,0.3-1.2,1-2.4,1H43l3.2-18.4l2.6,1.1h11.3L61.6,0L63.8,2.1z M57.8,16.6l1.6-9.1c-0.2,0.1-0.4,0.2-0.7,0.1
		c-0.9,1.6-1.8,2.9-2.8,4.1c0.1,0.4,0.3,0.8,0.6,1.2c0.2,0.3,0.3,0.2,0.5,0c0.3-0.4,0.9-1.3,1.3-2l0.2,0.1l-0.8,2.8
		c0.4,1,0.4,1.6,0,2c-1,0.8-2.3,0.1-2.7-0.6c-0.3-0.5-0.6-1-0.8-1.6c-1.5,1.2-3.2,2-5.1,2.6L49,16c1.7-1,3.4-2.3,4.8-3.9
		c-0.3-1.3-0.3-2.8-0.2-4.4c-0.1,0-0.2,0.1-0.3,0.1l-0.5,2.9c0,0.2-1,0.6-1.7,0.6h-0.3l0.1-0.6h-0.8L50,11.1c0,0.1-0.9,0.6-1.7,0.6
		H48l0.9-5.3l1.8,0.8h0.6l1-0.8l1.3,1.1c0-0.5,0.1-1,0.2-1.6h-5L48.4,5h5.1c0.1-0.8,0.2-1.7,0.4-2.6l2.9,0.5
		c-0.1,0.2-0.3,0.5-0.8,0.5C56,4,55.9,4.5,55.8,5h1l0.8-0.8c-0.1-0.6-0.4-1.3-0.6-1.7l0.2-0.1c2.8,0,2.6,1.6,1.6,2.1
		c0.3,0.2,0.5,0.5,0.7,0.7c-0.1,0.2-0.3,0.3-0.6,0.3h-3.2c-0.2,1.2-0.3,2.4-0.3,3.5c0.6-0.9,1.1-2,1.5-3l2.5,1.2l0.9-5.1H48.6
		L46,16.6H57.8z M52.7,11.7c-0.9,0.6-2.2,1.5-4.2,2.7c-0.1,0.3-0.4,0.5-0.6,0.5l-0.8-2.7c1-0.1,3.3-0.4,5.6-0.7V11.7z M51.1,7.5
		h-0.8L49.9,10h0.8L51.1,7.5z"/>
</g>
<text transform="matrix(0.9812 0 -0.1927 0.9812 64.5521 18.2407)" class="st0 st1 st2">Dr. C.K. Mao</text>
</svg>
