<?xml version="1.0" encoding="utf-8"?>
<!-- Generator: Adobe Illustrator 26.5.0, SVG Export Plug-In . SVG Version: 6.00 Build 0)  -->
<svg version="1.1" id="圖層_1" xmlns="http://www.w3.org/2000/svg" xmlns:xlink="http://www.w3.org/1999/xlink" x="0px" y="0px"
	 width="471.1px" height="292.2px" viewBox="0 0 471.1 292.2" style="enable-background:new 0 0 471.1 292.2;" xml:space="preserve"
	>
<style type="text/css">
	.st0{fill:url(#SVGID_1_);}
	.st1{fill:url(#SVGID_00000054978394002806434870000014195704541842028698_);}
	.st2{fill:url(#SVGID_00000177453127191071923940000006558248959776279980_);}
	.st3{fill:url(#SVGID_00000172422027875137704650000012156441768411360435_);}
	.st4{fill:url(#SVGID_00000094578643434535295880000009970441338869617808_);}
	.st5{fill:url(#SVGID_00000145020291839739489270000001183960399058859441_);}
	.st6{fill:url(#SVGID_00000150808951486348676070000008447347224874606761_);}
	.st7{fill:url(#SVGID_00000112602216270827450580000010040791583649110926_);}
</style>
<linearGradient id="SVGID_1_" gradientUnits="userSpaceOnUse" x1="71.9547" y1="134.5135" x2="16.0878" y2="132.5183">
	<stop  offset="0" style="stop-color:#EFCABD"/>
	<stop  offset="0.1597" style="stop-color:#EBC7BA"/>
	<stop  offset="0.3013" style="stop-color:#E1BDB1"/>
	<stop  offset="0.4362" style="stop-color:#CEAEA2"/>
	<stop  offset="0.5669" style="stop-color:#B5978D"/>
	<stop  offset="0.6946" style="stop-color:#947B72"/>
	<stop  offset="0.82" style="stop-color:#6C5751"/>
	<stop  offset="0.9412" style="stop-color:#3D2E2A"/>
	<stop  offset="1" style="stop-color:#231815"/>
</linearGradient>
<path class="st0" d="M27.8,94c3.3,1,5.1,1.8,5.1,2.6c0,1-1,1.6-2.9,1.8c-1.1,0.2-1.9,0.5-2.2,0.7c5.6,2.6,9.7,4.9,12.2,7
	c2.9,2.5,4.4,4.7,4.4,6.6c0,1.9-0.6,3.4-1.7,4.8c-1,1.3-2.2,1.9-3.5,1.9c-1.2,0-2.4-0.3-3.3-0.9c-0.9-0.6-1.8-2.6-2.9-6.1
	c-1.1-3.1-3.3-6.5-6.8-10.5c-2.7,5.7-5.4,10.5-8.3,14.2c-1.9,2.7-4,5.2-6.5,7.6c3.2,0.4,7.3,0.5,12.1,0.5c0.2,0,1.2-1.1,3-3.3
	c2.1-2.5,3.4-3.7,3.8-3.7c1.1,0,2.8,1.2,5.1,3.6c2.3,2.5,3.4,4,3.4,4.6c0,1-0.5,1.4-1.4,1.4H23.5c-6.3,0-10.8,0.2-13.4,0.4l-0.7-1.5
	c-2,1.9-4.2,3.8-6.5,5.6l-1.1-1.4c2.9-4,6-9.6,9.4-16.7c2.8-5.7,5.3-13,7.4-21.8C22.1,92.3,25.1,93.2,27.8,94z M23,157.7
	c1-1.9,1.8-4.1,2.8-6.4c1.3-3.5,2.4-7.3,3.3-11.1c-11.7,0-19,0.2-22.1,0.4l-1.4-3.7c3.2,0.6,7,0.8,11.4,0.8h11.4
	c1-1.1,1.6-1.8,2.1-2.4c1.3-1.3,2.4-2.1,3.2-2.1c1.1,0,3.1,1.2,5.9,3.6c2.7,2.2,4.1,3.7,4.1,4.6c0,0.9-1,1.6-2.7,2.3
	c-1.5,0.6-2.5,1.2-2.9,1.8c-2.2,3.6-4.7,6.8-7.5,9.5c-1.7,1.6-3.2,2.9-4.5,3.8c3.7,1.5,6.4,3.1,8.1,4.8c1.5,1.3,2.3,2.8,2.3,4.3
	c0,1.7-0.7,3.2-1.9,4.5c-1.1,1.4-2.5,2.2-4.1,2.2c-1.2,0-3.6-2.2-7.3-6.6c-3.6-4-8.4-7.6-14.3-10.9l1.1-2.3
	C15.3,155.7,19.6,156.6,23,157.7z M61.7,163c2.7,1.4,4,2.5,4,3.2c0,0.9-0.7,1.3-1.9,1.4c-1.5,0-2.4,0.3-2.6,0.9
	c-2.9,1.5-5.8,3-9,4.3c-3.6,1.5-9.4,3.1-17.2,4.7l-0.7-1.5c4.5-2.4,8.5-5,12-7.6c4-3.2,6.9-6.3,8.4-9.2
	C57.4,160.7,59.7,162,61.7,163z M53.8,97.7H75c0.2-0.1,1.2-1.2,3-3.3c2.1-2.5,3.4-3.8,3.8-3.8c1.1,0,2.8,1.2,5.1,3.7
	c2.3,2.5,3.4,4,3.4,4.5c0,1.1-0.5,1.5-1.4,1.5H71.3c-2.1,3.9-4.5,7.4-7.2,10.4h8.7c1-0.9,1.9-1.7,2.8-2.6c1.2-1.1,2.2-1.8,2.8-1.8
	c1,0,2.9,1,5.5,2.7c3.1,2.3,4.6,3.9,4.6,4.8c0,0.8-0.8,1.6-2.1,2.6c-1.1,1.1-1.6,2.1-1.6,3v19l0.8,18.3c0,1.2-1.7,2.1-5.1,2.7
	c-1.5,0.2-2.6,0.3-3.2,0.3c-1.8,0-2.7-1-2.7-3v-0.4h-19v0.4c0,1.2-1.4,2.1-4.3,2.7c-1.3,0.2-2.2,0.3-2.8,0.3c-2,0-3-1-3-3
	c0.2-3,0.4-5.9,0.4-9v-28.4c0-4.4-0.3-8.6-0.8-12.7c3.8,1.1,7.6,2.4,11.5,4.1h2.5c0.7-3,1.1-6.4,1.5-10.4h-6.9
	c-5.5,0-9.4,0.2-11.6,0.4l-1.5-3.7C43.6,97.5,48,97.7,53.8,97.7z M74.6,124.5v-11.2h-19v11.2H74.6z M74.6,138.7v-11.6h-19v11.6H74.6
	z M74.6,153.7v-12.3h-19v12.3H74.6z M80.9,163.3c3,1.1,5.2,2.4,6.5,3.7c1.1,1.1,1.8,2.2,1.8,3.3c0,1.7-0.7,3.2-1.9,4.5
	c-1.1,1.5-2.5,2.3-4.1,2.3c-0.9,0-2.6-1.9-5.3-5.5c-2.7-3.3-6.2-6.4-10.4-9.1l1.1-2.2C73.7,161.3,77.8,162.3,80.9,163.3z"/>
<linearGradient id="SVGID_00000068673216193821888820000007839589001769463732_" gradientUnits="userSpaceOnUse" x1="178.4849" y1="132.9902" x2="111.9767" y2="135.6505">
	<stop  offset="0" style="stop-color:#EFCABD"/>
	<stop  offset="0.1014" style="stop-color:#E8C4B7"/>
	<stop  offset="0.2528" style="stop-color:#D3B2A6"/>
	<stop  offset="0.4355" style="stop-color:#B2958B"/>
	<stop  offset="0.6425" style="stop-color:#846C65"/>
	<stop  offset="0.8671" style="stop-color:#493934"/>
	<stop  offset="1" style="stop-color:#231815"/>
</linearGradient>
<path style="fill:url(#SVGID_00000068673216193821888820000007839589001769463732_);" d="M120.3,121.6c1.1-1.1,2-2.2,3-3.3
	c1.3-1.5,2.3-2.3,3-2.3c1,0,2.6,1.1,5,3.2c2.7,2.3,4,3.7,4,4.3c0,1-0.8,1.7-2.1,2.5c-1.3,1-2,1.9-2,2.8v5.6c2.7,2,6.1,3.2,10.2,3.5
	c4.7,0.4,13.8,0.5,27.3,0.5c8.2,0,17.3-0.5,27.4-1.4l0.4,1.4c-2.3,0.6-4.2,2.8-5.7,6.5c-0.2,1.7-0.7,2.5-1.4,2.5h-15.8
	c1.4,0.3,2.5,0.6,3.2,0.8c3.9,0.8,5.9,1.6,5.9,2.6c0,1-0.9,1.7-2.4,2.3c-1.7,0.5-2.5,1.2-2.5,2.2v0.4h5.3c0.2,0,1-1.1,2.4-3
	c1.8-2.2,2.9-3.3,3.2-3.3c1,0,2.5,1.1,4.6,3.3c2.1,2.3,3.2,3.6,3.2,4.1c0,1.1-0.6,1.5-1.5,1.5h-17.2v8.9c0,3.6-1.2,6.3-3.6,7.8
	c-2.8,1.7-5.5,2.7-8.3,2.7c-1,0-1.6-0.9-1.8-2.6c-0.6-2.9-4.2-5.6-10.9-8.3l0.4-1.8c5.3,1,9.4,1.4,11.9,1.4c1.5,0,2.3-0.5,2.3-1.4
	v-6.7h-43.3c-5.5,0-9.4,0.1-11.6,0.3l-1.5-3.7c3,0.6,7.4,0.8,13.1,0.8h43.3c0-1.6-0.3-4.4-0.7-8.2h-1.1c-5.3,0-12.1-0.3-20.3-0.9
	c-8.2-1.2-13.9-4.3-17.4-9.2c-0.4,0-0.8,0.3-1.1,0.7c-2.5,3.2-5.5,6.2-9.1,9c0,2.3-0.4,3.3-1.1,3.3c-0.6,0-1.2-0.6-1.8-1.9
	c-1.5-2.8-3.2-6.2-5-10.3c5-0.6,8.9-1.1,11.6-1.5v-12.3c-4.6,0-8.1,0.3-10.4,0.8l-1.5-4.5C112.9,121.2,116.5,121.6,120.3,121.6z
	 M122.9,105.3c1.7,1.2,2.6,2.7,2.6,4.3c0,1.5-0.7,2.9-1.9,4.2c-0.8,1-1.9,1.3-3.2,1.3c-1.1,0-2.2-1.1-3-3.2c-1.1-3-3-5.9-5.6-8.8
	l0.8-1.4C117.4,102.9,120.8,104.1,122.9,105.3z M131,94.7c1.7,1.1,2.7,2.5,2.7,4c0,1.6-0.7,3.2-2,4.5c-1,1.1-2.1,1.5-3.5,1.5
	c-1.2,0-2.3-1.1-3.2-3.2c-1.1-3.1-3.1-5.9-5.8-8.8l0.8-1.5C125.1,92.4,128.9,93.6,131,94.7z M143,162.7c2.5,1.2,3.7,2.7,3.7,4.3
	c0,1.8-0.9,3.6-2.4,5.3c-1.1,1.1-2.6,1.7-4.3,1.7c-1.8,0-3.3-1.1-4.6-3.4c-1.7-3.2-4.7-6.5-8.9-9.6l1.1-1.9
	C135,160.3,140.1,161.6,143,162.7z M157.3,92.5c1.9,0.8,2.9,1.6,2.9,2.5c0,1.7-0.8,3.2-2.2,4.8c-0.6,0.7-1.1,1.1-1.7,1.2h9.8
	c0.8-1.7,1.4-3.3,2-4.8c0.5-1.7,1-3.9,1.3-6.4c2.7,0.8,5.3,1.4,7.9,2.1c2.4,0.8,3.6,1.5,3.6,2.4c0,0.9-0.8,1.4-2.1,1.6
	c-1.4,0.3-2.2,0.6-2.3,1c-1.1,1.3-2.5,2.4-4,3.2c-0.6,0.4-1.1,0.7-1.5,0.9h9.6c0.2-0.1,1-1.1,2.5-3c1.7-2.3,2.8-3.4,3.2-3.4
	c1,0,2.5,1.1,4.6,3.4s3.2,3.6,3.2,4.1c0,1-0.6,1.4-1.5,1.4h-10.4c1,0.6,2,1.2,3.2,2.1c3.1,2,4.6,3.4,4.6,4.3c0,0.6-0.6,1.2-1.7,1.9
	c-1.1,0.6-1.8,1.2-2,1.8v20.5c0,1.1-1.5,1.8-4.5,2.3c-1.3,0.2-2.4,0.3-3,0.3c-1.7,0-2.6-0.8-2.6-2.3h-25c-0.4,1.1-1.8,1.9-4.3,2.4
	c-1.3,0.2-2.2,0.3-2.8,0.3c-2.1,0-3.1-1-3.1-3c0.2-3,0.4-5.9,0.4-9v-8.2c0-4.4-0.3-8.6-0.7-12.7c3.8,1.1,7.6,2.4,11.6,4.1h3.1
	c0.8-1.5,1.3-3.2,1.7-4.9h-8.9c-5.5,0-9.4,0.2-11.6,0.4l-1.5-3.7c3,0.6,7.4,0.8,13.1,0.8h4.7c-0.7-0.4-1.2-1.1-1.8-2.2
	c-1.1-2.3-3.1-4.5-5.9-6.8l0.8-1.5C151.4,91.2,155.2,91.9,157.3,92.5z M176.2,116.3v-5.3h-25v5.3H176.2z M176.2,124.1v-5.3h-25v5.3
	H176.2z M176.2,132v-5.3h-25v5.3H176.2z M174.7,108.5c1.1-1.5,2-2.9,2.9-4c0.3-0.4,0.6-0.7,0.8-0.9h-11.1c-1.9,1.9-4,3.5-6.3,4.9
	H174.7z"/>
<linearGradient id="SVGID_00000082360783988055292760000016413228557039112350_" gradientUnits="userSpaceOnUse" x1="259.4098" y1="134.3846" x2="217.5096" y2="141.7005">
	<stop  offset="0" style="stop-color:#EFCABD"/>
	<stop  offset="0.1014" style="stop-color:#E8C4B7"/>
	<stop  offset="0.2528" style="stop-color:#D3B2A6"/>
	<stop  offset="0.4355" style="stop-color:#B2958B"/>
	<stop  offset="0.6425" style="stop-color:#846C65"/>
	<stop  offset="0.8671" style="stop-color:#493934"/>
	<stop  offset="1" style="stop-color:#231815"/>
</linearGradient>
<path style="fill:url(#SVGID_00000082360783988055292760000016413228557039112350_);" d="M232.4,104.8h9.6v-5.6
	c0-2.7-0.3-5.3-0.8-8.2c4.1,0.4,8.1,1,12,1.6c2.4,0.1,3.6,0.7,3.6,1.8c0,0.5-0.8,1.1-2.1,1.7c-1.5,0.8-2.3,1.7-2.3,2.7v6h4
	c0.2-0.1,1.2-1.3,3.2-3.7c2.2-2.7,3.5-4.1,4-4.1c1.1,0,3,1.3,5.4,4c1.7,1.9,2.9,3.2,3.2,3.8c2.7-3.1,5.2-6.3,7.4-9.7
	c2.9,1.4,5.2,2.6,7.1,3.4c3.2,1.4,4.9,2.7,4.9,3.7c0,0.7-0.8,1.1-2.3,1.2s-2.6,0.5-3,1c-5.5,6.2-11.7,12.1-18.8,17.8
	c-0.3,0.2-0.5,0.4-0.7,0.5h10.1c0.3-0.1,1.4-1.5,3.4-4.2c2.5-3.1,4-4.7,4.4-4.7c1.3,0,3.3,1.5,6.2,4.5c2.9,3.1,4.3,4.9,4.3,5.5
	c0,1.1-0.7,1.5-1.9,1.5h-30.3c-4.8,3.2-10.3,6.1-16.5,8.6c-2.1,1-4.5,1.9-7.1,2.9l0.2,0.1h29.4c1.5-1.7,3-3.2,4.3-4.6
	c1-1.1,1.9-1.8,2.9-1.8c0.8,0,2.8,1,5.8,2.9c3.5,2.5,5.3,4.1,5.3,5c0,1-0.9,1.9-2.4,2.8c-1.1,0.9-1.7,1.8-1.7,2.9v18.6
	c0,3.1,0.1,7.1,0.4,12.3c0,1.1-1.7,2.1-5,2.8c-1.5,0.2-2.7,0.3-3.2,0.3c-1.8,0-2.7-1.1-2.7-3.1v-3h-33.5v2.6c0,1.1-1.6,2.1-4.8,2.7
	c-1.4,0.2-2.5,0.4-3.1,0.4c-2.3,0-3.3-1.1-3.3-3.1c0.4-4.5,0.7-9,0.7-13.8v-20.5c-5.9,1.8-12.6,3.5-20.2,5.3l-0.7-1.9
	c15.1-5.3,27.1-10.4,36.1-15.6c1.5-0.9,3-1.7,4.4-2.7H223c-5.5,0-9.4,0.2-11.6,0.4l-1.5-3.7c3.1,0.5,7.4,0.7,13.1,0.7h19v-15.3h-9.6
	c-5.5,0-9.4,0.2-11.7,0.4l-1.4-3.7C222.3,104.6,226.6,104.8,232.4,104.8z M273,152.9v-13.5h-33.5v13.5H273z M273,169.3v-13.9h-33.5
	v13.9H273z M264.1,113.3c2.2-1.9,4.2-3.8,6-5.9h-17.6v15.3h0.1C256.7,119.7,260.6,116.7,264.1,113.3z"/>
<linearGradient id="SVGID_00000122691349642234021750000008217267430687706037_" gradientUnits="userSpaceOnUse" x1="357.3215" y1="134.7377" x2="322.0721" y2="137.3981">
	<stop  offset="0" style="stop-color:#EFCABD"/>
	<stop  offset="0.1014" style="stop-color:#E8C4B7"/>
	<stop  offset="0.2528" style="stop-color:#D3B2A6"/>
	<stop  offset="0.4355" style="stop-color:#B2958B"/>
	<stop  offset="0.6425" style="stop-color:#846C65"/>
	<stop  offset="0.8671" style="stop-color:#493934"/>
	<stop  offset="1" style="stop-color:#231815"/>
</linearGradient>
<path style="fill:url(#SVGID_00000122691349642234021750000008217267430687706037_);" d="M347.7,92.9c3.1,0.8,4.7,1.4,4.7,2.1
	c0,1-0.7,1.6-1.9,2c-1.2,0.5-1.8,1-1.8,1.4c-2.5,4.2-6,8.2-10.6,11.9h6.1c1.3-1.6,2.7-3.1,3.8-4.4c1-1.1,1.8-1.6,2.6-1.6
	c0.8,0,2.5,0.9,5.3,2.6c3.2,2.2,4.8,3.7,4.8,4.5c0,0.9-0.6,1.7-1.7,2.6c-0.9,0.8-1.2,1.7-1.2,2.7v41.5c0,2.9,0.1,6.9,0.4,11.9
	c0,1.1-1.6,2.1-4.8,2.7c-1.4,0.2-2.5,0.3-3.1,0.3c-1.7,0-2.6-1.1-2.6-3v-4.5h-11.9v6.3c0,1.1-1.5,2.1-4.6,2.7
	c-1.3,0.2-2.4,0.3-3,0.3c-2,0-3-1.1-3-3c0.2-3.2,0.4-6.5,0.4-9.7v-43.3c0-4.6-0.3-9-0.8-13.4c3.5,1,7.1,2.3,10.7,3.8
	c2-6.1,3.2-12.1,3.5-18.1C342.5,91.8,345.4,92.3,347.7,92.9z M347.6,135.3V113h-11.9v22.4H347.6z M347.6,162.9V138h-11.9v24.9H347.6
	z M378.8,93.3c3.1,1,4.6,1.9,4.6,2.9c0,1.1-0.9,1.7-2.5,1.9c-1.7,0.3-2.6,0.7-2.8,1.1c-1.1,3.7-2.2,7.1-3.3,10.1h14.9
	c1.8-1.7,3.1-3,3.8-3.5c1.4-1.1,2.4-1.7,2.9-1.7c1,0,2.8,1.1,5.6,3c3.2,2.4,4.9,4.1,4.9,5.3c0,0.8-0.9,1.6-2.5,2.6
	c-1.1,0.7-1.6,1.3-1.6,1.9c-0.2,16-0.9,28.8-2.1,38.5c-1.5,8.7-3.2,14.1-5.2,16.6c-1.4,1.8-3.3,3.2-5.7,4.2c-2.3,1-4.2,1.5-5.7,1.5
	c-1,0-1.8-1.2-2.6-3.7c-1-3.2-5-5.9-11.9-8.2l0.4-1.5c6.5,0.6,11,0.8,13.5,0.8c2,0,3.5-1.8,4.6-5.4c0.8-3.2,1.5-9,2.2-17.4
	c0.9-11.3,1.3-21.3,1.3-30.2h-17.9c-1,2.3-2,4.4-3.1,6.2c-2.8,5.1-6.4,10.2-10.8,15.5l-1.4-1.5c3-6.9,5.3-13.2,6.8-19.1
	c1.5-6.2,2.9-13.7,4-22.4C372.5,91.5,375.7,92.4,378.8,93.3z M379.9,134.1c2.3,2.3,3.4,4.4,3.4,6.1c0,2.9-0.9,5.3-2.5,7.2
	c-1.4,1.9-3.2,2.9-5.1,2.9c-0.8,0-1.4-0.3-2-0.9c-0.6-0.7-1.1-2.9-1.8-6.6c-0.8-4.2-2.9-9.4-6.2-15.3l1.8-1.4
	C373.5,129.1,377.7,131.8,379.9,134.1z"/>
<linearGradient id="SVGID_00000123402132031959200610000016196349835399527318_" gradientUnits="userSpaceOnUse" x1="93.9246" y1="248.1131" x2="42.0482" y2="250.7734">
	<stop  offset="0" style="stop-color:#EFCABD"/>
	<stop  offset="0.1014" style="stop-color:#E8C4B7"/>
	<stop  offset="0.2528" style="stop-color:#D3B2A6"/>
	<stop  offset="0.4355" style="stop-color:#B2958B"/>
	<stop  offset="0.6425" style="stop-color:#846C65"/>
	<stop  offset="0.8671" style="stop-color:#493934"/>
	<stop  offset="1" style="stop-color:#231815"/>
</linearGradient>
<path style="fill:url(#SVGID_00000123402132031959200610000016196349835399527318_);" d="M65.4,227.6c-3.7,13-6.6,23-8.6,30.2
	c-1.7,7.2-2.6,12-2.6,14.6c0,1.3,0.1,2.9,0.4,4.5c1.2,3.3,1.9,5.9,1.9,7.8c0,1.7-0.5,2.9-1.4,3.6c-1,1-2.5,1.5-4.6,1.5
	c-2.6,0-4.5-0.6-5.8-1.5c-0.9-0.8-1.2-1.9-1.2-3.6c0-1,0.3-2.2,0.9-4c0.2-1.3,0.3-2.4,0.3-3.2c0-2.3-0.4-4-1.1-5.3
	c-0.8-1.3-3.1-2.6-6.9-3.6l0.4-2.3c3.9,0,6.5-0.3,7.7-0.9c1.1-0.7,2-2.1,2.8-4.4l16-33.9L65.4,227.6z M50.1,234.6
	c1.9,1.6,3,3.5,3,5.7c0,1.8-0.9,3.5-2.4,5.3c-1.1,1.2-2.6,1.8-4.3,1.8c-1.3,0-2.4-1.3-3.3-4.2c-1.1-3.9-3.3-7.7-6.4-11.5l1.1-1.9
	C43.6,231.3,47.7,232.9,50.1,234.6z M56.8,211.2c2,1.7,3.1,3.6,3.1,5.8c0,1.9-0.9,3.6-2.5,5.3c-1.1,1.2-2.6,1.8-4.3,1.8
	c-1.3,0-2.4-1.4-3.2-4.3c-1.2-4-3.3-7.9-6.4-11.7l1.1-1.9C50.4,207.8,54.5,209.5,56.8,211.2z M77.7,223.5h3.3v-4.1
	c0-3.8-0.4-8.6-1.1-14.5c3.2,0.6,6.6,1.1,9.9,1.8c4.2,0.8,6.4,1.6,6.4,2.6c0,0.9-0.9,1.6-2.5,2.2c-1.4,0.6-2.2,1.1-2.3,1.9
	c0,3.7-0.1,7.1-0.1,10.1h7.9c1.1-1.1,2.2-2.1,3.2-3.1c1.3-1.4,2.4-2.2,3.2-2.2c1.1,0,2.9,1.1,5.5,3.4c3.1,2.5,4.6,4.1,4.6,4.8
	c0,1-0.8,2-2.1,2.8c-1.3,1.1-2,2.3-2,3.2v17.9h1.1c0.5-1.3,1.1-2.9,1.9-4.4c1-2,1.8-3.1,2.6-3.1c0.7,0,1.6,1,2.9,2.7
	c1.8,2.7,2.8,4.7,2.8,5.9c0,1-0.6,1.4-1.5,1.4H93.6c1.7,4.8,3.8,8.8,6.4,12c2.6,3.4,5.9,6.3,9.9,8.5c3.8,2.3,8.8,4.5,14.8,6.4
	l-0.7,1.8c-2.3,0.7-4.4,2.6-6.2,6c-1.3,2.5-2.2,3.7-2.8,3.7c-1,0-2.8-1.1-5.4-3.3c-3.5-2.9-6.4-5.8-8.7-9.1c-2.4-3.4-4.2-7-5.5-10.5
	c-1.8-4.5-3.2-9.6-4-15.6h-1.5c-1,6.3-2.6,11.7-5,16c-2.6,4.6-6,8.9-10.2,12.7c-4,3.6-9.9,7.3-17.9,10.9l-0.7-1.5
	c6-4.7,11.1-9.7,15.1-15.4c3.3-4.5,5.9-10.8,7.8-18.8c0.2-1.1,0.5-2.4,0.7-3.9h-7.9c-2.9,0-5.9,0.2-9,0.4l-1.5-3.7
	c4.6,0.6,8.1,0.8,10.5,0.8H80c0.6-5.7,1-13.9,1.1-24.3h-3.3c-4.5,0-7.8,0.3-10,0.8l-1.5-4.1C69.6,223.3,73.5,223.5,77.7,223.5z
	 M90.2,250.3h11v-24.3h-9.7C91.3,237.7,90.8,245.7,90.2,250.3z"/>
<linearGradient id="SVGID_00000111874579334284943390000012585535731635487905_" gradientUnits="userSpaceOnUse" x1="189.7579" y1="247.9068" x2="155.8387" y2="249.9021">
	<stop  offset="0" style="stop-color:#EFCABD"/>
	<stop  offset="0.1014" style="stop-color:#E8C4B7"/>
	<stop  offset="0.2528" style="stop-color:#D3B2A6"/>
	<stop  offset="0.4355" style="stop-color:#B2958B"/>
	<stop  offset="0.6425" style="stop-color:#846C65"/>
	<stop  offset="0.8671" style="stop-color:#493934"/>
	<stop  offset="1" style="stop-color:#231815"/>
</linearGradient>
<path style="fill:url(#SVGID_00000111874579334284943390000012585535731635487905_);" d="M206.6,208.1c2.7,0.9,4,1.7,4,2.7
	s-0.8,1.5-2.3,1.7s-2.4,0.5-2.6,0.9c-0.4,0.9-0.7,1.6-1.1,2.3h13c0.1,0,1.1-1,3-3.1c2.5-2.9,4.1-4.4,4.9-4.4c0.8,0,2.9,1.6,6.5,4.9
	c2.1,1.9,3.2,3.2,3.2,3.7c0,1-0.7,1.4-1.9,1.4H214c2.1,0.7,3.7,1.2,4.8,1.8c2.3,1.3,3.4,2.5,3.4,3.4c0,2.2-0.5,3.9-1.4,5.2
	c-1.2,1.3-2.6,1.9-4.1,1.9c-1.3,0-2.4-0.2-3-0.6c-0.7-0.3-1.2-1.5-1.7-3.8c-0.6-2.6-1.9-5.3-4-7.9h-4.7c-0.8,1.3-1.5,2.4-2.4,3.3
	c-1.5,2-3.5,4-6,5.9c1.1,0.2,2.5,0.4,3.8,0.6c3.2,0.5,4.9,1.1,4.9,2.1s-1.1,1.8-3.1,2.4c-1.5,0.4-2.2,1-2.2,2.1h20.9
	c0.2-0.1,1.2-1.3,3.2-3.8c2.2-2.9,3.5-4.4,3.9-4.4c1.1,0,3.1,1.4,5.7,4.2c2.7,2.9,4,4.6,4,5.2c0,1-0.7,1.4-1.9,1.4h-35.8v8.2h16.4
	c0.9-0.8,1.5-1.5,2-2.1c1.7-1.5,2.9-2.4,3.6-2.4c0.9,0,2.8,1.1,5.8,3.3c2.8,2.2,4.2,3.7,4.2,4.6c0,0.7-0.8,1.5-2.1,2.5
	c-1.9,1.2-2.8,2.4-2.8,3.4v5.3c0,3-1.5,5.2-4.6,6.7c-2.5,1.3-4.6,1.9-6.2,1.9c-0.7,0-1.2-1.1-1.8-3.2c-0.8-2.6-3.6-4.8-8.6-6.5
	l0.4-1.9c4.1,0.6,7.5,0.8,10,0.8c0.8,0,1.1-0.9,1.1-2.6v-7.1h-17.6v8.6c4.9,5.5,10.2,9.7,16.1,12.6c7.3,3.5,14.4,6,21.6,7.5
	l-0.4,1.9c-2.5,0.9-4.4,2.6-5.6,5.3c-0.7,1.9-1.2,3-1.8,3c-1.3,0-4.5-1.4-9.4-4.2c-5.2-3.1-10-7-14.6-11.7c-2.2-2.5-4.2-5.1-5.9-7.7
	v9.1c0,5.7,0.1,11.4,0.4,17.1c0,1.1-1.7,2.1-5.1,2.8c-1.5,0.2-2.6,0.3-3.2,0.3c-2.3,0-3.3-1.1-3.3-3.1c0.5-6.2,0.8-11.9,0.8-17.1
	v-4.9c-4,3.4-8,6.3-12.1,8.8c-6.1,3.6-14.1,7.2-24.1,10.6l-0.8-1.9c7-3.9,13-8,18.1-12.3c5.6-4.2,11.9-10.4,18.9-18.6v-5.9h-16.4
	v18.2c0,1.2-1.5,2.1-4.5,2.7c-1.3,0.2-2.4,0.3-3,0.3c-2,0-3-1-3-3c0.2-3.2,0.3-6.4,0.3-9.6v-2.3c0-4.6-0.3-9.1-0.7-13.5
	c3.9,1.1,7.9,2.7,12,4.5h15.2V244c0-2.4-0.1-4.7-0.1-6.8H164c-5.5,0-9.4,0.2-11.6,0.4l-1.5-3.7c3,0.6,7.4,0.8,13.1,0.8h23.7
	c-0.2-3-0.4-5.7-0.6-8.2c1.6,0.2,3.5,0.5,5.6,0.7c1.3-3.6,2.5-6.9,3.2-9.9c0.8-3.2,1.3-7.1,1.9-11.7
	C200.9,206.5,203.7,207.3,206.6,208.1z M170.8,207.3c2.7,0.9,4,1.7,4,2.7s-0.8,1.5-2.3,1.7c-1.5,0.2-2.4,0.6-2.6,1
	c-0.6,1.1-1.1,2-1.6,3h9.5c0.1,0,1.1-1,2.9-3c2.3-2.7,3.8-4.1,4.6-4.1s2.8,1.5,6.2,4.6c2.1,1.9,3.2,3.2,3.2,3.6c0,1-0.7,1.4-1.8,1.4
	h-16.6c1.9,0.8,3.3,1.4,4.3,2c1.9,1.4,3,2.7,3,3.6c0,2.1-0.5,3.8-1.4,5.1c-1.3,1.3-2.7,2-4.2,2c-1.1,0-1.8-0.2-2.3-0.7
	c-0.6-0.2-1-1.5-1.3-3.8c-0.4-2.7-1.5-5.4-3.2-8.2h-4.4c-1.1,1.4-2.1,2.7-3.2,3.8c-2.5,2.6-5.7,5.2-9.7,7.7l-1.1-1.1
	c2.7-4,4.7-7.6,6-11.1c1.4-3.5,2.7-7.8,3.6-12.8C165.1,205.7,167.9,206.6,170.8,207.3z"/>
<linearGradient id="SVGID_00000009574187813683528370000014394018151578376360_" gradientUnits="userSpaceOnUse" x1="304.8129" y1="247.9932" x2="268.8984" y2="249.9884">
	<stop  offset="0" style="stop-color:#EFCABD"/>
	<stop  offset="0.1014" style="stop-color:#E8C4B7"/>
	<stop  offset="0.2528" style="stop-color:#D3B2A6"/>
	<stop  offset="0.4355" style="stop-color:#B2958B"/>
	<stop  offset="0.6425" style="stop-color:#846C65"/>
	<stop  offset="0.8671" style="stop-color:#493934"/>
	<stop  offset="1" style="stop-color:#231815"/>
</linearGradient>
<path style="fill:url(#SVGID_00000009574187813683528370000014394018151578376360_);" d="M279,259.7c0,8.6-0.4,14.5-1.1,17.7
	c-0.9,3.4-2.2,5.9-4.1,7.3c-1.2,0.8-2.5,1.1-3.7,1.1c-2.1,0-3.9-0.7-5.3-1.8c-1.3-1.1-1.9-2.6-1.9-4.5c0-1.2,1.2-2.8,3.7-4.6
	c2.7-1.7,4.9-3.8,6.4-6.1c1.4-2.1,2.7-5.3,3.7-9.5L279,259.7z M284,210.4h40.5c1.1-1,2.2-1.9,3.2-2.9c1.4-1.3,2.5-2,3.2-2
	c1.1,0,3.2,1.1,6.1,3c3.3,2.7,5.1,4.4,5.1,5.3c0,0.9-0.9,1.7-2.4,2.7c-1.3,1.1-2,2-2,3v14.9l0.7,18.3c0,1.2-1.7,2.1-5,2.7
	c-1.5,0.2-2.6,0.3-3.2,0.3c-1.7,0-2.6-1-2.6-3v-2.3h-44.4v2.3c0,1.2-1.6,2.1-4.8,2.7c-1.4,0.2-2.5,0.3-3.1,0.3c-2.3,0-3.3-1-3.3-3
	c0.5-7.3,0.8-13.6,0.8-19.1v-10c0-4.7-0.3-10.4-0.8-17.2C276.2,207.3,280.2,208.7,284,210.4z M299.9,228.3v-15.3h-16.8v15.3H299.9z
	 M299.9,247.7v-16.8h-16.8v16.8H299.9z M295.4,257.8c3.7,0.6,5.6,1.3,5.6,2.3c0,1.1-1,2.1-2.7,2.7c-1.1,0.5-1.8,1.3-1.8,2.5v12.7
	c0,2.1,0.7,3.2,2,3.5c2.6,0.4,6.6,0.6,12.1,0.6c2.9,0,5.3-0.2,7.4-0.8c1.3-0.4,2.3-1,2.9-1.7c0.4-0.6,0.9-1.8,1.4-3.8
	c0.7-2.4,1.4-5.6,2.2-9.7l2.2,0.4c0.2,4.4,0.4,7.1,0.4,8.1c0,2.8,1.1,4.7,3.2,5.7c2.8,1.4,4.2,2.7,4.2,3.7c0,1.7-1.1,3.2-3.4,4.4
	c-1.8,0.9-3.7,1.4-5.8,1.7c-3.7,0.6-8.6,1-14.6,1c-9.4,0-15.7-0.4-18.7-1c-2.6-0.6-4.3-1.7-5.2-3.3c-0.8-1.1-1.1-3.2-1.1-6.1v-12.7
	c0-3.9-0.4-7.7-1.1-11.6C287.7,256.6,291.3,257.1,295.4,257.8z M315.4,259.2c2.1,2.1,3.2,4.5,3.2,7.2c0,1.7-0.8,3.4-2.3,5.1
	c-1.1,1.1-2.4,1.6-4,1.6c-1.4,0-2.7-1.6-3.6-4.9c-1.3-4.6-3.5-9-6.8-13.4l0.7-1.5C308.6,255.2,312.9,257.2,315.4,259.2z
	 M309.9,228.3h17.6v-15.3h-17.6V228.3z M309.9,247.7h17.6v-16.8h-17.6V247.7z M344.2,266.6c3.5,3.6,5.3,6.9,5.3,9.9
	c0,2.3-0.9,4-2.4,5.3c-1,1-2.2,1.3-3.6,1.3c-1.3,0-2.6-0.5-3.5-1.4c-1-0.8-1.7-2.9-2.4-6.1c-1-4.7-3.3-10.2-7.2-16.7l1.1-0.8
	C337.1,260.9,341.3,263.7,344.2,266.6z"/>
<linearGradient id="SVGID_00000110434582143020895170000006476761916061765762_" gradientUnits="userSpaceOnUse" x1="434.6713" y1="248.0009" x2="374.1488" y2="249.331">
	<stop  offset="0" style="stop-color:#EFCABD"/>
	<stop  offset="0.1014" style="stop-color:#E8C4B7"/>
	<stop  offset="0.2528" style="stop-color:#D3B2A6"/>
	<stop  offset="0.4355" style="stop-color:#B2958B"/>
	<stop  offset="0.6425" style="stop-color:#846C65"/>
	<stop  offset="0.8671" style="stop-color:#493934"/>
	<stop  offset="1" style="stop-color:#231815"/>
</linearGradient>
<path style="fill:url(#SVGID_00000110434582143020895170000006476761916061765762_);" d="M397.4,208c2.9,1.1,4.3,2.3,4.3,3.5
	c0,0.7-0.8,1.1-2.1,1.1c-1.4,0.2-2.2,0.5-2.4,0.7c-3.1,4.4-6.5,8.4-10.5,12c0.8,0.5,1.4,1,2,1.3c1.9,1.7,3,3.8,3,6.1
	c0,1.3-0.7,2.7-1.8,3.9c-0.8,0.9-1.8,1.2-3.1,1.2c-1.5,0-2.8-1.3-3.7-4.1c-1.3-3.8-3.7-7.5-7.2-11.2l0.8-1.1c2.7,0.8,5,1.5,6.8,2.3
	c2-5.9,3.6-12.3,4.8-19C391.4,205.9,394.4,207,397.4,208z M429.1,207.5c2.9,1,4.3,1.9,4.3,2.9s-0.8,1.5-2.3,1.7
	c-1.5,0.2-2.4,0.6-2.6,1c-1.4,3.8-3,7.2-4.6,10.2l2,1h9.6c2.3-5.4,4-11.3,5.3-17.6c3.2,1.1,6.2,2.2,9.2,3.2c2.9,1.1,4.3,2.3,4.3,3.4
	c0,0.7-0.8,1.1-2.1,1.2c-1.4,0.2-2.2,0.5-2.4,0.7c-3.1,3.2-6.7,6.3-10.7,9h9.2c0.1,0,1-1,2.6-2.9c2.1-2.6,3.4-3.9,4.2-3.9
	c0.6,0,2.6,1.5,5.9,4.5c1.9,1.8,3,3,3,3.3c0,1.1-0.5,1.5-1.4,1.5h-17.2v15.7h2.2c0.1,0,0.9-0.9,2.4-2.6c2-2.5,3.3-3.7,4-3.7
	c0.6,0,2.5,1.4,5.6,4.2c1.9,1.7,3,2.8,3,3.2c0,1-0.6,1.4-1.5,1.4h-15.7v16h2.2c0.1,0,0.9-0.9,2.4-2.6c2-2.5,3.3-3.7,4-3.7
	c0.6,0,2.5,1.4,5.6,4.2c1.9,1.7,3,2.9,3,3.2c0,1.1-0.6,1.5-1.5,1.5h-15.7v18.6h2.2c0.1,0,1-1,2.7-3c2.3-2.7,3.7-4.1,4.5-4.1
	c0.6,0,2.6,1.5,5.9,4.6c1.9,1.9,3,3.2,3,3.6c0,1-0.7,1.4-1.8,1.4h-36.2v4.5c0,1.1-1.5,2.1-4.5,2.7c-1.3,0.2-2.4,0.4-3,0.4
	c-2.3,0-3.3-1.1-3.3-3.1c0.5-4.4,0.8-8.8,0.8-13.4v-40.6c-2.3,2.8-4.9,5.4-7.6,8c0.7,0.8,1.2,1.3,1.6,1.8c1.7,2.5,2.6,4.7,2.6,6.5
	c0,1.8-0.5,3.2-1.2,4.3c-1.1,1.1-2.3,1.6-3.5,1.6c-1,0-1.5-0.3-1.9-0.9c-0.6-0.4-1-2.1-1.2-5.3c-0.2-1.5-0.4-3.1-0.8-4.6
	c-1.3,1.1-2.7,2.1-3.9,3V275c0,6.1,0.1,10.9,0.3,14.5c0,1.1-1.6,1.8-4.7,2.4c-1.4,0.2-2.5,0.3-3.2,0.3c-1.7,0-2.6-1-2.6-2.7
	c0.2-3.4,0.4-8.2,0.4-14.5v-6.1c-1.1,0.3-1.7,0.6-1.9,0.9c-1.2,4.2-2.7,7.6-4.2,10.5c-1.6,2.8-3.7,5.5-6.2,8.5l-1.1-1.1
	c1-4.4,1.6-8.4,2.1-12.1c0.5-3.8,1-8.5,1.3-14c3.1,0.9,6.1,1.7,9.1,2.6c0.4,0.2,0.7,0.3,1,0.3v-8.7c-1.5,0.8-3,1.3-4.4,1.8
	c-0.9,0.2-1.2,0.5-1.2,1.1c-0.1,0.3-0.2,0.7-0.3,1.1c-0.2,0.8-0.4,1.1-0.8,1.1c-1.1,0-2.6-2-4.2-6.1c-0.5-1.1-1.2-3-2.2-5.5
	c2.7-0.2,5.3-0.6,7.7-1c6.3-8.8,11.3-18.1,14.7-28.1c3.1,1.1,6,2.1,8.9,3.2c2.7,1.1,4.1,2.4,4.1,3.5c0,0.6-0.8,0.9-2.1,1
	c-1.4,0.2-2.2,0.4-2.3,0.6c-5.3,6.9-11.5,13.3-18.3,19.1c4.8-0.8,9.3-1.8,13.5-3c-0.5-1.5-1-3.1-1.5-4.6l0.8-0.8
	c1.4,1,2.7,1.9,3.7,2.7c3.6-5.8,6.5-11.2,8.5-16.1c2.2-5.7,4.1-12.7,5.6-20.8C423.1,205.8,426.1,206.7,429.1,207.5z M410.8,268.2
	c1.9,3.1,2.9,5.6,2.9,7.9c0,1.9-0.5,3.4-1.3,4.6c-1.2,1.1-2.6,1.7-3.9,1.7c-1.1,0-1.8-0.3-2.3-1c-0.6-0.5-1-2.6-1.3-6.2
	c-0.4-4.4-1.5-9-3.4-13.8l1.1-1.1C406.5,263.3,409.2,265.9,410.8,268.2z M435.3,226.8h-9.7v15.7h9.7V226.8z M435.3,245.1h-9.7v16
	h9.7V245.1z M435.3,263.8h-9.7v18.6h9.7V263.8z"/>
</svg>
